<svg width="79" height="79" viewBox="0 0 79 79" fill="none" xmlns="http://www.w3.org/2000/svg">
<g clip-path="url(#clip0_1338_4699)">
<path d="M39.5 79C61.3152 79 79 61.3152 79 39.5C79 17.6848 61.3152 0 39.5 0C17.6848 0 0 17.6848 0 39.5C0 61.3152 17.6848 79 39.5 79Z" fill="url(#paint0_linear_1338_4699)"/>
<path style="mix-blend-mode:color-burn" d="M39.5 79C61.3152 79 79 61.3152 79 39.5C79 17.6848 61.3152 0 39.5 0C17.6848 0 0 17.6848 0 39.5C0 61.3152 17.6848 79 39.5 79Z" fill="url(#paint1_linear_1338_4699)"/>
<path style="mix-blend-mode:multiply" opacity="0.5" d="M39.5 79C61.3152 79 79 61.3152 79 39.5C79 17.6848 61.3152 0 39.5 0C17.6848 0 0 17.6848 0 39.5C0 61.3152 17.6848 79 39.5 79Z" fill="url(#paint2_linear_1338_4699)"/>
<path style="mix-blend-mode:overlay" opacity="0.75" d="M39.5 0C17.6823 0 0 17.6823 0 39.5C0 61.3177 17.6823 79 39.5 79C61.3177 79 79 61.3177 79 39.5C79 17.6823 61.3177 0 39.5 0ZM39.5 69.5063C22.9306 69.5063 9.49374 56.0694 9.49374 39.5C9.49374 22.9306 22.9306 9.49374 39.5 9.49374C56.0694 9.49374 69.5063 22.9306 69.5063 39.5C69.5063 56.0694 56.0694 69.5063 39.5 69.5063Z" fill="url(#paint3_radial_1338_4699)"/>
<path style="mix-blend-mode:screen" opacity="0.5" d="M11.5683 11.5683C8.94417 14.1925 6.69096 17.1876 4.87739 20.4576C4.83617 20.5263 4.79496 20.595 4.75374 20.6636C4.68504 20.7873 4.63009 20.911 4.56139 21.0209C1.66243 26.544 0 32.8228 0 39.5C0 40.3243 0.0274783 41.135 0.0824348 41.9456C0.384696 47.0153 1.66243 51.824 3.69583 56.193C3.76452 56.3442 3.81948 56.4816 3.88817 56.6327C3.91565 56.6877 3.95687 56.7563 3.98435 56.8113C3.99809 56.8525 4.02557 56.8937 4.0393 56.9349C6.96574 62.8703 14.9207 64.0793 19.6057 59.3943L26.4478 52.5522C21.0483 47.1527 19.7019 39.2115 22.3948 32.548C24.1397 28.2339 23.3016 23.3153 20.0179 20.0179L11.5683 11.5683Z" fill="url(#paint4_linear_1338_4699)"/>
<path style="mix-blend-mode:screen" opacity="0.3" d="M52.5522 26.4478C57.7318 31.6137 59.1882 39.129 56.9075 45.6139C55.1489 50.6562 56.248 56.248 60.0125 60.0125L67.4179 67.4179C74.5623 60.2736 78.9863 50.4089 78.9863 39.5C78.9863 38.3459 78.9313 37.1918 78.8351 36.0652C77.7085 22.9856 61.8261 17.1739 52.5385 26.4616L52.5522 26.4478Z" fill="url(#paint5_linear_1338_4699)"/>
<path style="mix-blend-mode:screen" opacity="0.5" d="M9.97457 55.5061C10.8127 58.8172 12.2553 61.8673 14.1925 64.5464C12.4614 62.8016 10.95 60.933 9.65857 58.9683C9.69979 57.8005 9.8097 56.6464 9.97457 55.5061Z" fill="url(#paint6_linear_1338_4699)"/>
<path style="mix-blend-mode:screen" d="M23.9748 25.0602C13.1346 32.3831 2.1021 39.9259 7.50157 54.9428C1.14036 41.712 2.85775 24.7442 14.3849 14.3849C23.8374 5.88034 34.2517 18.1219 23.9885 25.0602H23.9748Z" fill="url(#paint7_linear_1338_4699)"/>
<path style="mix-blend-mode:screen" opacity="0.75" d="M39.7748 3.99809C32.8091 3.99809 25.8296 5.92156 19.8119 9.93339C29.4842 6.48487 33.551 13.849 39.3489 17.7372C45.1743 21.6529 52.3324 18.3555 52.3049 11.9805C52.2912 8.75182 49.5022 3.99809 39.7748 3.99809Z" fill="url(#paint8_linear_1338_4699)"/>
<g clip-path="url(#clip1_1338_4699)">
<path d="M50.4805 28.4743H56.9672C57.532 28.4743 57.9961 28.0176 57.9961 27.4534V21.0209C57.9961 20.4567 57.5358 20 56.9672 20H50.4805C49.9157 20 49.4515 20.4567 49.4515 21.0209V23.6423H42.137C41.8044 23.6423 41.5375 23.9071 41.5375 24.2371V38.4032H35.511V34.0164C35.511 32.8726 34.6445 31.8287 33.0702 31.0841C31.6352 30.4048 29.7476 30.0287 27.7555 30.0287C25.7634 30.0287 23.8758 30.4048 22.4408 31.0841C20.8664 31.8287 20 32.8726 20 34.0164V43.9798C20 45.1274 20.8664 46.1675 22.4369 46.912C23.8681 47.5914 25.7557 47.9636 27.7555 47.9636C29.7553 47.9636 31.6429 47.5914 33.0741 46.912C34.6445 46.1675 35.511 45.1274 35.511 43.9798V39.593H41.5375V53.759C41.5375 54.0891 41.8044 54.3539 42.137 54.3539H49.4554V56.9791C49.4554 57.5394 49.9157 58 50.4843 58H56.9711C57.5358 58 58 57.5433 58 56.9791V50.5428C58 49.9824 57.5397 49.5219 56.9711 49.5219H50.4805C49.9157 49.5219 49.4515 49.9786 49.4515 50.5428V53.1641H42.7366V39.593H49.4554V42.2182C49.4554 42.7785 49.9157 43.2391 50.4843 43.2391H56.9711C57.5358 43.2391 58 42.7823 58 42.2182V35.7818C58 35.2215 57.5397 34.7609 56.9711 34.7609H50.4805C49.9157 34.7609 49.4515 35.2177 49.4515 35.7818V38.4032H42.7366V24.832H49.4554V27.4572C49.4515 28.0176 49.9157 28.4743 50.4805 28.4743ZM21.1991 36.1848C21.5434 36.465 21.9611 36.7183 22.4446 36.9486C23.8797 37.6279 25.7673 38.0002 27.7594 38.0002C29.7514 38.0002 31.6429 37.6279 33.0741 36.9486C33.5576 36.7183 33.9715 36.465 34.3158 36.1848V39.0211C34.3158 40.3452 31.6236 41.819 27.7594 41.819C23.8952 41.819 21.1991 40.3452 21.1991 39.0211V36.1848ZM27.7555 31.2185C31.6197 31.2185 34.3119 32.6923 34.3119 34.0164C34.3119 35.3405 31.6197 36.8143 27.7555 36.8143C23.8913 36.8143 21.1991 35.3405 21.1991 34.0164C21.1991 32.6923 23.8913 31.2185 27.7555 31.2185ZM27.7555 46.7777C23.8913 46.7777 21.1991 45.3039 21.1991 43.9798V41.1934C21.5434 41.4698 21.9572 41.7269 22.4408 41.9533C23.8719 42.6327 25.7596 43.0049 27.7594 43.0049C29.7592 43.0049 31.6468 42.6327 33.078 41.9533C33.5576 41.7269 33.9715 41.4698 34.3158 41.1934V43.9798C34.3158 45.3039 31.6197 46.7777 27.7555 46.7777ZM50.6507 50.7116H56.7932V56.8064H50.6507V50.7116ZM50.6507 35.9507H56.7932V42.0454H50.6507V35.9507ZM50.6507 21.1898H56.7932V27.2884H50.6507V21.1898Z" fill="white"/>
<path d="M21.0431 35.498C21.399 35.787 21.8309 36.0483 22.3308 36.2859C23.8144 36.9866 25.766 37.3706 27.8255 37.3706C29.885 37.3706 31.8405 36.9866 33.3202 36.2859C33.8201 36.0483 34.248 35.787 34.6039 35.498V38.4237C34.6039 39.7896 31.8205 41.3098 27.8255 41.3098C23.8304 41.3098 21.0431 39.7896 21.0431 38.4237V35.498Z" fill="white"/>
<path d="M57.1059 35.6471H50.251V42.502H57.1059V35.6471Z" fill="white"/>
</g>
</g>
<defs>
<linearGradient id="paint0_linear_1338_4699" x1="11.5683" y1="11.5683" x2="67.4317" y2="67.4317" gradientUnits="userSpaceOnUse">
<stop stop-color="#FFA979"/>
<stop offset="1" stop-color="#AE00D9"/>
</linearGradient>
<linearGradient id="paint1_linear_1338_4699" x1="67.4317" y1="67.4317" x2="11.5683" y2="11.5683" gradientUnits="userSpaceOnUse">
<stop stop-color="#303030"/>
<stop offset="1" stop-color="white"/>
</linearGradient>
<linearGradient id="paint2_linear_1338_4699" x1="67.4317" y1="67.4317" x2="11.5683" y2="11.5683" gradientUnits="userSpaceOnUse">
<stop/>
<stop offset="1" stop-color="white"/>
</linearGradient>
<radialGradient id="paint3_radial_1338_4699" cx="0" cy="0" r="1" gradientUnits="userSpaceOnUse" gradientTransform="translate(38.2892 39.1388) scale(39.4802)">
<stop stop-color="#303030"/>
<stop offset="0.21" stop-color="#323232"/>
<stop offset="0.36" stop-color="#3B3B3B"/>
<stop offset="0.48" stop-color="#4A4A4A"/>
<stop offset="0.6" stop-color="#606060"/>
<stop offset="0.7" stop-color="#7C7C7C"/>
<stop offset="0.8" stop-color="#9E9E9E"/>
<stop offset="0.89" stop-color="#C7C7C7"/>
<stop offset="0.98" stop-color="#F4F4F4"/>
<stop offset="1" stop-color="white"/>
</radialGradient>
<linearGradient id="paint4_linear_1338_4699" x1="-1.49756" y1="22.5322" x2="25.4037" y2="54.5856" gradientUnits="userSpaceOnUse">
<stop stop-color="white"/>
<stop offset="1"/>
</linearGradient>
<linearGradient id="paint5_linear_1338_4699" x1="65.7692" y1="21.9139" x2="65.7692" y2="67.4179" gradientUnits="userSpaceOnUse">
<stop stop-color="white"/>
<stop offset="1"/>
</linearGradient>
<linearGradient id="paint6_linear_1338_4699" x1="11.9255" y1="64.5327" x2="11.9255" y2="55.5061" gradientUnits="userSpaceOnUse">
<stop stop-color="white"/>
<stop offset="1"/>
</linearGradient>
<linearGradient id="paint7_linear_1338_4699" x1="16.0336" y1="11.4859" x2="16.0336" y2="54.9428" gradientUnits="userSpaceOnUse">
<stop stop-color="white"/>
<stop offset="0.16" stop-color="#C2C2C2"/>
<stop offset="0.32" stop-color="#878787"/>
<stop offset="0.49" stop-color="#575757"/>
<stop offset="0.64" stop-color="#313131"/>
<stop offset="0.78" stop-color="#161616"/>
<stop offset="0.9" stop-color="#050505"/>
<stop offset="1"/>
</linearGradient>
<linearGradient id="paint8_linear_1338_4699" x1="31.8748" y1="2.88522" x2="42.7837" y2="21.7765" gradientUnits="userSpaceOnUse">
<stop stop-color="white"/>
<stop offset="1"/>
</linearGradient>
<clipPath id="clip0_1338_4699">
<rect width="79" height="79" fill="white"/>
</clipPath>
<clipPath id="clip1_1338_4699">
<rect width="38" height="38" fill="white" transform="translate(20 20)"/>
</clipPath>
</defs>
</svg>
