<svg width="79" height="79" viewBox="0 0 79 79" fill="none" xmlns="http://www.w3.org/2000/svg">
<g clip-path="url(#clip0_1338_4727)">
<path d="M39.5 79C61.3152 79 79 61.3152 79 39.5C79 17.6848 61.3152 0 39.5 0C17.6848 0 0 17.6848 0 39.5C0 61.3152 17.6848 79 39.5 79Z" fill="url(#paint0_linear_1338_4727)"/>
<path style="mix-blend-mode:multiply" opacity="0.5" d="M39.5 79C61.3152 79 79 61.3152 79 39.5C79 17.6848 61.3152 0 39.5 0C17.6848 0 0 17.6848 0 39.5C0 61.3152 17.6848 79 39.5 79Z" fill="url(#paint1_linear_1338_4727)"/>
<path style="mix-blend-mode:color-burn" opacity="0.5" d="M39.5 79C61.3152 79 79 61.3152 79 39.5C79 17.6848 61.3152 0 39.5 0C17.6848 0 0 17.6848 0 39.5C0 61.3152 17.6848 79 39.5 79Z" fill="url(#paint2_linear_1338_4727)"/>
<path style="mix-blend-mode:multiply" opacity="0.5" d="M39.5 79C61.3152 79 79 61.3152 79 39.5C79 17.6848 61.3152 0 39.5 0C17.6848 0 0 17.6848 0 39.5C0 61.3152 17.6848 79 39.5 79Z" fill="url(#paint3_linear_1338_4727)"/>
<path style="mix-blend-mode:overlay" opacity="0.75" d="M39.5 0C17.6867 0 0 17.6867 0 39.5C0 61.3133 17.6867 79 39.5 79C61.3133 79 79 61.3133 79 39.5C79 17.6867 61.3133 0 39.5 0ZM39.5 69.5014C22.9286 69.5014 9.49859 56.0714 9.49859 39.5C9.49859 22.9286 22.9286 9.49859 39.5 9.49859C56.0714 9.49859 69.5014 22.9286 69.5014 39.5C69.5014 56.0714 56.0714 69.5014 39.5 69.5014Z" fill="url(#paint4_radial_1338_4727)"/>
<path style="mix-blend-mode:screen" opacity="0.5" d="M11.5712 11.5712C8.95024 14.1921 6.69176 17.1848 4.88871 20.4657C4.85153 20.54 4.80506 20.6051 4.76788 20.6701C4.70282 20.7909 4.64706 20.9118 4.582 21.0326C1.66365 26.544 0 32.8268 0 39.5C0 40.3179 0.0371765 41.1358 0.0836471 41.9351C0.390353 47.0004 1.65435 51.8147 3.69906 56.1829C3.76412 56.3317 3.82918 56.4804 3.89424 56.6198C3.92212 56.6848 3.95929 56.7406 3.98718 56.8057C4.00576 56.8428 4.02435 56.8893 4.04294 56.9265C6.97059 62.8561 14.9356 64.0644 19.6106 59.3894L26.4511 52.5489C21.0512 47.1491 19.7035 39.2119 22.3988 32.548C24.1461 28.2355 23.3096 23.3097 20.0195 20.0195L11.5712 11.5712Z" fill="url(#paint5_linear_1338_4727)"/>
<path style="mix-blend-mode:screen" opacity="0.3" d="M52.5488 26.4511C57.7257 31.6186 59.1756 39.1282 56.9078 45.6155C55.1419 50.6529 56.2386 56.248 60.012 60.0214L67.4101 67.4195C74.5573 60.2817 78.9813 50.402 78.9813 39.4907C78.9813 38.3382 78.9348 37.1858 78.8326 36.0519C77.708 22.9751 61.8244 17.1569 52.5396 26.4418L52.5488 26.4511Z" fill="url(#paint6_linear_1338_4727)"/>
<path style="mix-blend-mode:screen" opacity="0.5" d="M9.97223 55.5045C10.8087 58.8132 12.2586 61.8617 14.1918 64.5477C12.4631 62.8097 10.9574 60.9415 9.66553 58.9619C9.7027 57.7908 9.81423 56.6384 9.97223 55.5045Z" fill="url(#paint7_linear_1338_4727)"/>
<path style="mix-blend-mode:screen" d="M23.9787 25.0569C13.1417 32.3807 2.10033 39.9275 7.50951 54.9468C1.13374 41.712 2.86245 24.7409 14.3779 14.378C23.8207 5.88318 34.2487 18.1142 23.9787 25.0477V25.0569Z" fill="url(#paint8_linear_1338_4727)"/>
<path style="mix-blend-mode:screen" opacity="0.75" d="M39.7694 3.99648C32.7988 3.99648 25.8283 5.92036 19.8057 9.93542C29.4715 6.4873 33.5424 13.8482 39.3419 17.7332C45.1693 21.646 52.3258 18.3466 52.2886 11.9708C52.27 8.74577 49.4911 3.99648 39.7601 3.99648H39.7694Z" fill="url(#paint9_linear_1338_4727)"/>
<path d="M53.8556 19.9214H46.63L46.2394 18.524C46.2394 18.3493 45.8488 18 45.4582 18H34.1315C33.9362 18 33.5456 18.1747 33.3503 18.524L32.9597 19.9214H25.734C24.1717 19.9214 23 20.9694 23 22.3668V55.5546C23 56.952 24.1717 58 25.734 58H53.8556C55.418 58 56.5897 56.952 56.5897 55.5546V22.3668C56.5897 20.9694 55.2227 19.9214 53.8556 19.9214ZM31.3974 26.2096C31.5927 26.3843 31.788 26.3843 31.9833 26.3843H47.6064C47.8017 26.3843 47.997 26.3843 48.1923 26.2096C48.1923 26.2096 48.1923 25.8603 48.1923 25.6856L47.6064 24.1135H51.7075V53.8079H27.6869V24.2882H31.5927L31.2021 25.6856C31.2021 25.8603 31.2021 26.2096 31.3974 26.2096ZM34.7173 19.3974H44.8724L46.63 25.3362H32.9597L34.7173 19.3974ZM55.2227 55.7293C55.2227 56.4279 54.6368 56.952 53.8556 56.952H25.734C24.9529 56.952 24.367 56.4279 24.367 55.7293V22.3668C24.367 21.6681 24.9529 21.1441 25.734 21.1441H32.7644L32.1786 22.8908H27.1011C26.5152 22.8908 26.3199 23.2402 26.3199 23.5895V54.5065C26.3199 54.8559 26.5152 55.2052 27.1011 55.2052H52.6839C53.0745 55.2052 53.4651 55.0306 53.4651 54.5065V23.5895C53.4651 23.2402 53.2698 22.8908 52.6839 22.8908H47.6064L47.0205 21.1441H54.0509C54.8321 21.1441 55.418 21.6681 55.418 22.3668C55.2227 22.3668 55.2227 55.7293 55.2227 55.7293Z" fill="white"/>
<path d="M47.881 39.3974H32.6981C32.349 39.3974 32 39.572 32 40.0961C32 40.4454 32.1745 40.7947 32.6981 40.7947H47.881C48.2301 40.7947 48.5791 40.6201 48.5791 40.0961C48.5791 39.7467 48.4046 39.3974 47.881 39.3974Z" fill="white"/>
<path d="M32 33.6987C32 34.048 32.1745 34.3974 32.6981 34.3974H47.881C48.2301 34.3974 48.5791 34.2227 48.5791 33.6987C48.5791 33.1747 48.4046 33 47.881 33H32.6981C32.1745 33 32 33.1747 32 33.6987Z" fill="white"/>
<path d="M47.881 45.7947H32.6981C32.349 45.7947 32 45.9694 32 46.4934C32 47.0174 32.1745 47.1921 32.6981 47.1921H47.881C48.2301 47.1921 48.5791 47.0174 48.5791 46.4934C48.5791 45.9694 48.4046 45.7947 47.881 45.7947Z" fill="white"/>
</g>
<defs>
<linearGradient id="paint0_linear_1338_4727" x1="11.5712" y1="11.5712" x2="67.4288" y2="67.4288" gradientUnits="userSpaceOnUse">
<stop stop-color="#00FFFF"/>
<stop offset="1" stop-color="#C73DD6"/>
</linearGradient>
<linearGradient id="paint1_linear_1338_4727" x1="11.5712" y1="11.5712" x2="67.4288" y2="67.4288" gradientUnits="userSpaceOnUse">
<stop stop-color="#00FFFF"/>
<stop offset="1" stop-color="#C73DD6"/>
</linearGradient>
<linearGradient id="paint2_linear_1338_4727" x1="67.4288" y1="67.4288" x2="11.5712" y2="11.5712" gradientUnits="userSpaceOnUse">
<stop stop-color="#303030"/>
<stop offset="1" stop-color="white"/>
</linearGradient>
<linearGradient id="paint3_linear_1338_4727" x1="67.4288" y1="67.4288" x2="11.5712" y2="11.5712" gradientUnits="userSpaceOnUse">
<stop/>
<stop offset="1" stop-color="white"/>
</linearGradient>
<radialGradient id="paint4_radial_1338_4727" cx="0" cy="0" r="1" gradientUnits="userSpaceOnUse" gradientTransform="translate(39.5046 39.4977) scale(39.5)">
<stop stop-color="#303030"/>
<stop offset="0.21" stop-color="#323232"/>
<stop offset="0.36" stop-color="#3B3B3B"/>
<stop offset="0.48" stop-color="#4A4A4A"/>
<stop offset="0.6" stop-color="#606060"/>
<stop offset="0.7" stop-color="#7C7C7C"/>
<stop offset="0.8" stop-color="#9E9E9E"/>
<stop offset="0.89" stop-color="#C7C7C7"/>
<stop offset="0.98" stop-color="#F4F4F4"/>
<stop offset="1" stop-color="white"/>
</radialGradient>
<linearGradient id="paint5_linear_1338_4727" x1="-1.49635" y1="22.5382" x2="25.4008" y2="54.5844" gradientUnits="userSpaceOnUse">
<stop stop-color="white"/>
<stop offset="1"/>
</linearGradient>
<linearGradient id="paint6_linear_1338_4727" x1="65.7744" y1="21.9155" x2="65.7744" y2="67.4195" gradientUnits="userSpaceOnUse">
<stop stop-color="white"/>
<stop offset="1"/>
</linearGradient>
<linearGradient id="paint7_linear_1338_4727" x1="11.924" y1="64.5384" x2="11.924" y2="55.5045" gradientUnits="userSpaceOnUse">
<stop stop-color="white"/>
<stop offset="1"/>
</linearGradient>
<linearGradient id="paint8_linear_1338_4727" x1="16.0322" y1="11.4875" x2="16.0322" y2="54.9375" gradientUnits="userSpaceOnUse">
<stop stop-color="white"/>
<stop offset="0.16" stop-color="#C2C2C2"/>
<stop offset="0.32" stop-color="#878787"/>
<stop offset="0.49" stop-color="#575757"/>
<stop offset="0.64" stop-color="#313131"/>
<stop offset="0.78" stop-color="#161616"/>
<stop offset="0.9" stop-color="#050505"/>
<stop offset="1"/>
</linearGradient>
<linearGradient id="paint9_linear_1338_4727" x1="31.8694" y1="2.88118" x2="42.7807" y2="21.7761" gradientUnits="userSpaceOnUse">
<stop stop-color="white"/>
<stop offset="1"/>
</linearGradient>
<clipPath id="clip0_1338_4727">
<rect width="79" height="79" fill="white"/>
</clipPath>
</defs>
</svg>
