<?xml version="1.0" encoding="utf-8"?>
<!-- Generator: Adobe Illustrator 26.4.1, SVG Export Plug-In . SVG Version: 6.00 Build 0)  -->
<svg version="1.1" id="Layer_1" xmlns="http://www.w3.org/2000/svg" xmlns:xlink="http://www.w3.org/1999/xlink" x="0px" y="0px"
	 viewBox="0 0 2368.6 791.2" style="enable-background:new 0 0 2368.6 791.2;" xml:space="preserve">
<style type="text/css">
	.st0{fill:#222223;stroke:#5F6062;stroke-width:7;stroke-miterlimit:10;}
	.st1{fill:none;stroke:#5F6062;stroke-width:2;stroke-miterlimit:10;}
	.st2{fill:#A36BAD;stroke:#FFFFFF;stroke-width:3;stroke-miterlimit:10;}
	.st3{fill:none;stroke:#FFFFFF;stroke-width:3;stroke-miterlimit:10;}
	.st4{fill:#FFFFFF;}
	.st5{fill:none;}
	.st6{font-family:'Inter-ExtraBold';}
	.st7{font-size:30px;}
	.st8{fill:#D58428;stroke:#FFFFFF;stroke-width:3;stroke-miterlimit:10;}
	.st9{fill:none;stroke:#FFFFFF;stroke-miterlimit:10;}
	.st10{font-family:'Inter-Thin';}
	.st11{font-size:42px;}
	.st12{fill:#46BBEB;stroke:#FFFFFF;stroke-width:2;stroke-miterlimit:10;}
	.st13{font-family:'Inter-Medium';}
	.st14{font-size:25px;}
	.st15{font-size:21px;}
	.st16{fill:#4057A7;stroke:#FFFFFF;stroke-width:2;stroke-miterlimit:10;}
	.st17{fill:#006187;stroke:#FFFFFF;stroke-width:2;stroke-miterlimit:10;}
	.st18{fill:#00B385;stroke:#FFFFFF;stroke-width:2;stroke-miterlimit:10;}
	.st19{font-size:35px;}
	.st20{fill:#692B88;stroke:#FFFFFF;stroke-width:3;stroke-miterlimit:10;}
</style>
<path class="st0" d="M2275.9,709.3H1017.4c-24.2,0-44-19.8-44-44V106.5c0-24.2,19.8-44,44-44h1258.5c24.2,0,44,19.8,44,44v558.7
	C2319.9,689.5,2300.1,709.3,2275.9,709.3z"/>
<path class="st1" d="M2226.2,392.5h-493.6c-10.4,0-18.9-8.5-18.9-18.9V109c0-10.4,8.5-18.9,18.9-18.9h493.6
	c10.4,0,18.9,8.5,18.9,18.9v264.6C2245.2,384,2236.6,392.5,2226.2,392.5z"/>
<path class="st2" d="M907.5,440.5H552.1c-10.6,0-19.3-8.7-19.3-19.3v-67.5c0-10.6,8.7-19.3,19.3-19.3h355.4
	c10.6,0,19.3,8.7,19.3,19.3v67.5C926.8,431.8,918.1,440.5,907.5,440.5z"/>
<g>
	<g>
		<line class="st3" x1="729.8" y1="441.5" x2="729.8" y2="493.2"/>
		<g>
			<path class="st4" d="M729.8,492c3.1-3.1,9.3-4.6,13.6-4.8c-5.8,4.3-10.8,9.9-13.6,16.6c-2.7-6.8-8-12.1-13.6-16.6
				C720.8,487.6,726.4,488.7,729.8,492z"/>
		</g>
	</g>
</g>
<rect x="528.4" y="373.5" class="st5" width="402.9" height="51.5"/>
<text transform="matrix(1 0 0 1 649.1509 395.344)" class="st4 st6 st7">Project IDs</text>
<path class="st8" d="M867.7,646H591.9c-10.5,0-19.1-8.6-19.1-19.1v-92.1c0-10.5,8.6-19.1,19.1-19.1h275.8c10.5,0,19.1,8.6,19.1,19.1
	v92.1C886.8,637.4,878.2,646,867.7,646z"/>
<rect x="528.4" y="549" class="st5" width="402.9" height="86.5"/>
<text transform="matrix(1 0 0 1 596.2148 570.8339)"><tspan x="0" y="0" class="st4 st6 st7">Project Attributes</tspan><tspan x="11.4" y="36" class="st4 st6 st7">(NIH RePORTER)</tspan></text>
<g>
	<g>
		<polyline class="st9" points="925.8,396.2 1187.7,396.2 1188,219.5 1334.1,219.5 		"/>
		<g>
			<path class="st4" d="M1333.5,219.5c-1.6-1.6-2.3-4.7-2.4-6.8c2.1,2.9,4.9,5.4,8.3,6.8c-3.4,1.4-6,4-8.3,6.8
				C1331.3,224,1331.9,221.2,1333.5,219.5z"/>
		</g>
	</g>
</g>
<g>
	<g>
		<polyline class="st9" points="925.8,396.8 1187.7,396.8 1188,573.4 1334.1,573.4 		"/>
		<g>
			<path class="st4" d="M1333.5,573.4c-1.6-1.6-2.3-4.7-2.4-6.8c2.1,2.9,4.9,5.4,8.3,6.8c-3.4,1.4-6,4-8.3,6.8
				C1331.3,578,1331.9,575.2,1333.5,573.4z"/>
		</g>
	</g>
</g>
<g>
	<g>
		<line class="st9" x1="1187.4" y1="396.2" x2="1334.1" y2="396.2"/>
		<g>
			<path class="st4" d="M1333.5,396.2c-1.6-1.6-2.3-4.7-2.4-6.8c2.1,2.9,4.9,5.4,8.3,6.8c-3.4,1.4-6,4-8.3,6.8
				C1331.3,400.7,1331.9,397.9,1333.5,396.2z"/>
		</g>
	</g>
</g>
<rect x="1038.6" y="101.4" class="st5" width="402.9" height="51.5"/>
<text transform="matrix(1 0 0 1 1038.6167 131.9292)" class="st4 st10 st11">Research Outputs</text>
<path class="st12" d="M1626.8,300.5h-259.5c-9.1,0-16.6-7.5-16.6-16.6V211c0-9.1,7.5-16.6,16.6-16.6h259.5c9.1,0,16.6,7.5,16.6,16.6
	v72.9C1643.5,293,1636,300.5,1626.8,300.5z"/>
<rect x="1346.5" y="224.6" class="st5" width="301" height="53.5"/>
<text transform="matrix(1 0 0 1 1404.8347 242.7392)"><tspan x="0" y="0" class="st4 st13 st14">PUBLICATIONS</tspan><tspan x="42.6" y="25.2" class="st4 st13 st15">(PubMed)</tspan></text>
<path class="st16" d="M1626.8,474.9h-259.5c-9.1,0-16.6-7.5-16.6-16.6v-72.9c0-9.1,7.5-16.6,16.6-16.6h259.5
	c9.1,0,16.6,7.5,16.6,16.6v72.9C1643.5,467.4,1636,474.9,1626.8,474.9z"/>
<rect x="1346.5" y="398.9" class="st5" width="301" height="53.5"/>
<text transform="matrix(1 0 0 1 1393.032 417.1242)"><tspan x="0" y="0" class="st4 st13 st14">CLINICAL TRIALS</tspan><tspan x="10.3" y="25.2" class="st4 st13 st15">(ClinicalTrials.gov)</tspan></text>
<path class="st17" d="M1626.8,652.2h-259.5c-9.1,0-16.6-7.5-16.6-16.6v-72.9c0-9.1,7.5-16.6,16.6-16.6h259.5
	c9.1,0,16.6,7.5,16.6,16.6v72.9C1643.5,644.8,1636,652.2,1626.8,652.2z"/>
<rect x="1346.5" y="576.3" class="st5" width="301" height="53.5"/>
<text transform="matrix(1 0 0 1 1439.1428 594.4816)"><tspan x="0" y="0" class="st4 st13 st14">PATENTS</tspan><tspan x="-56.3" y="25.2" class="st4 st13 st15">(USPTO public search)</tspan></text>
<g>
	<g>
		<line class="st9" x1="1497.1" y1="299.1" x2="1497.1" y2="353.8"/>
		<g>
			<path class="st4" d="M1497.1,353.4c1-1,3.1-1.5,4.5-1.6c-1.9,1.4-3.6,3.3-4.5,5.5c-0.9-2.3-2.7-4-4.5-5.5
				C1494.1,352,1495.9,352.3,1497.1,353.4z"/>
		</g>
	</g>
</g>
<g>
	<g>
		<polyline class="st9" points="1643.7,239.2 1756.6,239.2 1756.9,161.6 1794.8,161.6 		"/>
		<g>
			<path class="st4" d="M1794.2,161.6c-1.6-1.6-2.3-4.7-2.4-6.8c2.1,2.9,4.9,5.4,8.3,6.8c-3.4,1.4-6,4-8.3,6.8
				C1792,166.1,1792.6,163.3,1794.2,161.6z"/>
		</g>
	</g>
</g>
<g>
	<g>
		<polyline class="st9" points="1643.7,239.8 1756.6,239.8 1756.9,314.8 1794.8,314.8 		"/>
		<g>
			<path class="st4" d="M1794.2,314.8c-1.6-1.6-2.3-4.7-2.4-6.8c2.1,2.9,4.9,5.4,8.3,6.8c-3.4,1.4-6,4-8.3,6.8
				C1792,319.3,1792.6,316.5,1794.2,314.8z"/>
		</g>
	</g>
</g>
<g>
	<g>
		<line class="st9" x1="1645.8" y1="239.2" x2="1794.8" y2="239.2"/>
		<g>
			<path class="st4" d="M1794.2,239.2c-1.6-1.6-2.3-4.7-2.4-6.8c2.1,2.9,4.9,5.4,8.3,6.8c-3.4,1.4-6,4-8.3,6.8
				C1792,243.7,1792.6,240.9,1794.2,239.2z"/>
		</g>
	</g>
</g>
<path class="st18" d="M2004.1,196h-181.4c-6.4,0-11.6-5.2-11.6-11.6v-50.9c0-6.4,5.2-11.6,11.6-11.6h181.4c6.4,0,11.6,5.2,11.6,11.6
	v50.9C2015.8,190.8,2010.5,196,2004.1,196z"/>
<rect x="1762.9" y="147.9" class="st5" width="301" height="53.5"/>
<text transform="matrix(1 0 0 1 1888.5818 166.1155)" class="st4 st13 st14">SRA</text>
<path class="st18" d="M2004.1,276.9h-181.4c-6.4,0-11.6-5.2-11.6-11.6v-50.9c0-6.4,5.2-11.6,11.6-11.6h181.4
	c6.4,0,11.6,5.2,11.6,11.6v50.9C2015.8,271.6,2010.5,276.9,2004.1,276.9z"/>
<rect x="1762.9" y="228.8" class="st5" width="301" height="53.5"/>
<text transform="matrix(1 0 0 1 1886.9353 246.9489)" class="st4 st13 st14">GEO</text>
<path class="st18" d="M2004.1,357.4h-181.4c-6.4,0-11.6-5.2-11.6-11.6v-50.9c0-6.4,5.2-11.6,11.6-11.6h181.4
	c6.4,0,11.6,5.2,11.6,11.6v50.9C2015.8,352.2,2010.5,357.4,2004.1,357.4z"/>
<rect x="1762.9" y="309.4" class="st5" width="301" height="53.5"/>
<text transform="matrix(1 0 0 1 1873.3254 327.5359)" class="st4 st13 st14">dbGaP</text>
<rect x="2068.4" y="222.8" class="st5" width="402.9" height="51.5"/>
<text transform="matrix(1 0 0 1 2068.4355 248.2066)" class="st4 st10 st19">Datasets</text>
<path class="st20" d="M415.7,440.9H60.3c-10.6,0-19.3-8.7-19.3-19.3V354c0-10.6,8.7-19.3,19.3-19.3h355.4c10.6,0,19.3,8.7,19.3,19.3
	v67.5C434.9,432.2,426.3,440.9,415.7,440.9z"/>
<rect x="36.5" y="373.9" class="st5" width="402.9" height="51.5"/>
<text transform="matrix(1 0 0 1 117.0173 395.7452)" class="st4 st6 st7">NCI Program IDs</text>
<g>
	<g>
		<line class="st3" x1="435.3" y1="389.1" x2="519.1" y2="389.1"/>
		<g>
			<path class="st4" d="M517.9,389.1c-3.1-3.1-4.6-9.3-4.8-13.6c4.3,5.8,9.9,10.8,16.6,13.6c-6.8,2.7-12.1,8-16.6,13.6
				C513.5,398.2,514.6,392.6,517.9,389.1z"/>
		</g>
	</g>
</g>
</svg>
