<?xml version="1.0" encoding="utf-8"?>
<!-- Generator: Adobe Illustrator 26.3.1, SVG Export Plug-In . SVG Version: 6.00 Build 0)  -->
<svg version="1.1" xmlns="http://www.w3.org/2000/svg" xmlns:xlink="http://www.w3.org/1999/xlink" x="0px" y="0px"
	 viewBox="0 0 34 16" style="enable-background:new 0 0 34 16;" xml:space="preserve">
<style type="text/css">
	.st0{fill:#BCBCBB;}
	.st1{display:none;}
	.st2{display:inline;}
</style>
<g id="arrow-outputs">
	<g>
		<path class="st0" d="M4.2,15.9c-2.3,0-4.2-1.9-4.2-4.2c0-2.3,1.9-4.2,4.2-4.2s4.2,1.9,4.2,4.2C8.4,14,6.5,15.9,4.2,15.9z M4.2,9.1
			c-1.5,0-2.6,1.2-2.6,2.6s1.2,2.6,2.6,2.6s2.6-1.2,2.6-2.6S5.7,9.1,4.2,9.1z"/>
		<polygon class="st0" points="7.2,9.8 6.1,8.7 14.7,0.1 33.9,0.1 33.9,1.6 15.3,1.6 		"/>
	</g>
</g>
<g id="arrow-community" class="st1">
	<g class="st2">
		<path class="st0" d="M25.6,11.7c0-2.3,1.9-4.2,4.2-4.2s4.2,1.9,4.2,4.2c0,2.3-1.9,4.2-4.2,4.2S25.6,14,25.6,11.7z M27.1,11.7
			c0,1.5,1.2,2.6,2.6,2.6s2.6-1.2,2.6-2.6s-1.2-2.6-2.6-2.6S27.1,10.3,27.1,11.7z"/>
		<polygon class="st0" points="26.8,9.8 27.9,8.7 19.3,0.1 0.1,0.1 0.1,1.6 18.6,1.6 		"/>
	</g>
</g>
<g id="arrow-metrics" class="st1">
	<g class="st2">
		<path class="st0" d="M8.4,4.3c0,2.3-1.9,4.2-4.2,4.2S0.1,6.6,0.1,4.3c0-2.3,1.9-4.2,4.2-4.2S8.4,2,8.4,4.3z M6.9,4.3
			c0-1.5-1.2-2.6-2.6-2.6S1.6,2.8,1.6,4.3s1.2,2.6,2.6,2.6S6.9,5.7,6.9,4.3z"/>
		<polygon class="st0" points="7.2,6.2 6.1,7.3 14.7,15.9 33.9,15.9 33.9,14.4 15.3,14.4 		"/>
	</g>
</g>
</svg>
