<?xml version="1.0" encoding="utf-8"?>
<!-- Generator: Adobe Illustrator 26.3.1, SVG Export Plug-In . SVG Version: 6.00 Build 0)  -->
<svg version="1.1" xmlns="http://www.w3.org/2000/svg" xmlns:xlink="http://www.w3.org/1999/xlink" x="0px" y="0px"
	 viewBox="0 0 36 36" style="enable-background:new 0 0 36 36;" xml:space="preserve">
<style type="text/css">
	.st0{display:none;}
	.st1{display:inline;fill:#ECC6CB;}
	.st2{display:inline;fill:#DBBDDB;}
	.st3{fill:#F7E8C1;}
</style>
<g id="Small-community" class="st0">
	<path id="icon_00000015312612022128719800000003223502581387854015_" class="st1" d="M24.5,35.8c-6.1,0-11-4.9-11-11
		c0-6.1,4.9-11,11-11c6.1,0,11,4.9,11,11C35.6,30.9,30.6,35.8,24.5,35.8z M24.5,15c-5.4,0-9.8,4.4-9.8,9.8s4.4,9.8,9.8,9.8
		c5.4,0,9.8-4.4,9.8-9.8S29.9,15,24.5,15z M8.6,19.5c-4.5,0-8.2-3.7-8.2-8.2s3.7-8.2,8.2-8.2c4.5,0,8.2,3.7,8.2,8.2
		S13.2,19.5,8.6,19.5z M8.6,4.4c-3.8,0-7,3.1-7,7s3.1,7,7,7c3.8,0,7-3.1,7-7S12.5,4.4,8.6,4.4z M23.4,12.5c-3.4,0-6.2-2.8-6.2-6.2
		c0-3.4,2.8-6.2,6.2-6.2c3.4,0,6.2,2.8,6.2,6.2C29.6,9.8,26.8,12.5,23.4,12.5z M23.4,1.4c-2.7,0-4.9,2.2-4.9,4.9
		c0,2.7,2.2,4.9,4.9,4.9c2.7,0,4.9-2.2,4.9-4.9C28.4,3.6,26.1,1.4,23.4,1.4z"/>
</g>
<g id="Small-metrics" class="st0">
	<path id="icon_00000126294734872038667160000015062427257644818857_" class="st2" d="M2.1,25.9l-0.3-0.6c-1.1-2.3-1.6-4.8-1.6-7.3
		c0-9.2,6.9-16.8,16-17.7l0.7-0.1v10.1l-0.5,0.1c-3.6,0.7-6.1,3.9-6.1,7.5c0,0.8,0.1,1.7,0.4,2.4l0.2,0.5L2.1,25.9z M15.7,1.6
		C7.5,2.7,1.5,9.6,1.5,17.9c0,2.2,0.4,4.2,1.2,6.2l6.7-3.9c-0.2-0.8-0.3-1.5-0.3-2.3c0-4.1,2.8-7.6,6.6-8.6V1.6z M18,35.7
		c-5.7,0-11.1-2.8-14.4-7.4l-0.4-0.5l8.8-5.1l0.3,0.4c1.5,1.6,3.5,2.6,5.7,2.6s4.3-0.9,5.7-2.6l0.3-0.4l8.8,5.1l-0.4,0.5
		C29.1,32.9,23.7,35.7,18,35.7z M4.9,28.1c3.1,4,7.9,6.4,13,6.4c5.1,0,9.9-2.4,13-6.4l-6.7-3.9c-1.7,1.7-3.9,2.6-6.3,2.6
		s-4.7-1-6.3-2.6L4.9,28.1z M33.9,25.9l-8.8-5.1l0.2-0.5c0.3-0.8,0.4-1.6,0.4-2.4c0-3.6-2.6-6.8-6.1-7.5L19,10.3V0.2l0.7,0.1
		c9.1,0.9,16,8.5,16,17.7c0,2.6-0.5,5-1.6,7.3L33.9,25.9z M26.6,20.3l6.7,3.9c0.8-2,1.2-4.1,1.2-6.2c0-8.3-6.1-15.3-14.3-16.4v7.8
		c3.9,1,6.6,4.6,6.6,8.6C26.9,18.7,26.8,19.5,26.6,20.3z"/>
</g>
<g id="Small-outputs">
	<path id="icon_00000054943999362008404700000004975856087829397164_" class="st3" d="M13.2,20L0.3,20v-4.5l12.9,0V20z M1.5,18.7
		l10.5,0v-2l-10.5,0V18.7z M20,13.3l-19.7,0V8.8l19.7,0V13.3z M1.5,12.1l17.3,0v-2l-17.3,0V12.1z M26.2,26.6l-25.9,0v-4.5l25.9,0
		V26.6z M1.5,25.4l23.5,0v-2l-23.5,0V25.4z M8.5,6.6l-8.2,0V2.2l8.2,0V6.6z M1.5,5.4l5.7,0v-2l-5.7,0V5.4z M35.9,33.3l-35.6,0v-4.5
		l35.6,0V33.3z M1.5,32l33.1,0v-2L1.5,30V32z"/>
</g>
</svg>
