<svg width="20" height="21" viewBox="0 0 20 21" fill="none" xmlns="http://www.w3.org/2000/svg">
<g clip-path="url(#clip0_1096_4238)">
<path d="M4.80361 15.6705C4.29811 15.6705 4.29811 15.6705 4.29811 15.1966V14.2487C4.29811 13.7748 4.29811 13.7748 4.80361 13.7748H12.0386C12.5441 13.7748 12.5441 13.7748 12.5441 14.2487V15.1966C12.5441 15.6705 12.5441 15.6705 12.0386 15.6705H4.80361ZM4.80361 10.9314C4.29811 10.9314 4.29811 10.9314 4.29811 10.4575V9.50965C4.29811 9.03574 4.29811 9.03574 4.80361 9.03574H15.1664C15.6719 9.03574 15.6719 9.03574 15.6719 9.50965V10.4575C15.6719 10.9314 15.6719 10.9314 15.1664 10.9314H4.80361ZM4.80361 6.19228C4.29811 6.19228 4.29811 6.19228 4.29811 5.71837V4.77055C4.29811 4.29664 4.29811 4.29664 4.80361 4.29664H15.1664C15.6719 4.29664 15.6719 4.29664 15.6719 4.77055V5.71837C15.6719 6.19228 15.6719 6.19228 15.1664 6.19228H4.80361ZM2.46566 19.4617H17.4728C18.6734 19.4617 19.4316 19.0826 19.4316 17.5029V2.4642C19.4316 1.26363 18.6418 0.505371 17.4728 0.505371H2.46566C0.885963 0.505371 0.506836 1.29522 0.506836 2.4642V17.4713C0.506836 19.051 0.885963 19.4617 2.46566 19.4617Z" fill="#3F3C3F"/>
</g>
<defs>
<clipPath id="clip0_1096_4238">
<rect width="19.999" height="20.0938" fill="white" transform="translate(0.000976562)"/>
</clipPath>
</defs>
</svg>
