<svg width="343" height="325" viewBox="0 0 343 325" fill="none" xmlns="http://www.w3.org/2000/svg">
<path d="M169.938 301.207C143.521 301.207 117.955 293.491 96.0393 278.892C82.709 270.011 79.0941 252.005 87.9751 238.675C96.8561 225.345 114.861 221.73 128.192 230.611C140.566 238.849 154.991 243.211 169.938 243.211C184.884 243.211 199.309 238.849 211.684 230.611C225.014 221.73 243.019 225.345 251.9 238.675C260.781 252.005 257.166 270.011 243.836 278.892C221.903 293.491 196.355 301.207 169.938 301.207Z" fill="url(#paint0_linear_1542_2967)"/>
<path d="M274.182 203.36C273.557 203.36 272.931 203.342 272.305 203.307C256.316 202.282 244.185 188.5 245.21 172.511C245.315 170.964 245.367 169.365 245.367 167.783C245.367 138.933 229.308 113.037 203.447 100.194C189.091 93.0682 183.252 75.6537 190.378 61.3155C197.503 46.9599 214.918 41.1203 229.256 48.246C251.172 59.1256 269.664 75.8275 282.768 96.5267C296.255 117.834 303.38 142.479 303.38 167.783C303.38 170.599 303.293 173.432 303.12 176.213C302.129 191.576 289.372 203.377 274.2 203.377L274.182 203.36Z" fill="url(#paint1_linear_1542_2967)"/>
<path d="M65.6951 203.36C50.5227 203.36 37.7486 191.559 36.7753 176.195C36.6015 173.415 36.5146 170.582 36.5146 167.766C36.5146 142.461 43.6403 117.817 57.1269 96.5095C70.1965 75.8103 88.7058 59.1084 110.622 48.2287C124.96 41.103 142.374 46.96 149.5 61.2982C156.626 75.6538 150.769 93.0509 136.43 100.177C110.569 113.02 94.5106 138.916 94.5106 167.766C94.5106 169.348 94.5628 170.947 94.6671 172.493C95.6925 188.483 83.5614 202.265 67.5721 203.29C66.9465 203.325 66.3208 203.342 65.6951 203.342V203.36Z" fill="url(#paint2_linear_1542_2967)"/>
<ellipse cx="86.8988" cy="185.963" rx="57.3529" ry="57.3529" fill="url(#paint3_radial_1542_2967)" fill-opacity="0.85" style="mix-blend-mode:multiply"/>
<ellipse cx="255.481" cy="265.909" rx="57.3529" ry="57.3529" fill="url(#paint4_radial_1542_2967)" fill-opacity="0.85" style="mix-blend-mode:multiply"/>
<ellipse cx="238.102" cy="99.0641" rx="57.3529" ry="57.3529" fill="url(#paint5_radial_1542_2967)" fill-opacity="0.85" style="mix-blend-mode:multiply"/>
<path d="M70.822 211.511C98.4178 211.511 120.789 189.14 120.789 161.544C120.789 133.948 98.4178 111.578 70.822 111.578C43.2263 111.578 20.8555 133.948 20.8555 161.544C20.8555 189.14 43.2263 211.511 70.822 211.511Z" fill="url(#paint6_linear_1542_2967)"/>
<path style="mix-blend-mode:color-burn" d="M70.822 211.511C98.4178 211.511 120.789 189.14 120.789 161.544C120.789 133.948 98.4178 111.578 70.822 111.578C43.2263 111.578 20.8555 133.948 20.8555 161.544C20.8555 189.14 43.2263 211.511 70.822 211.511Z" fill="url(#paint7_linear_1542_2967)"/>
<path style="mix-blend-mode:multiply" opacity="0.5" d="M70.822 211.511C98.4178 211.511 120.789 189.14 120.789 161.544C120.789 133.948 98.4178 111.578 70.822 111.578C43.2263 111.578 20.8555 133.948 20.8555 161.544C20.8555 189.14 43.2263 211.511 70.822 211.511Z" fill="url(#paint8_linear_1542_2967)"/>
<path style="mix-blend-mode:overlay" opacity="0.75" d="M70.822 111.578C43.2231 111.578 20.8555 133.945 20.8555 161.544C20.8555 189.143 43.2231 211.511 70.822 211.511C98.421 211.511 120.789 189.143 120.789 161.544C120.789 133.945 98.421 111.578 70.822 111.578ZM70.822 199.501C49.8622 199.501 32.8648 182.504 32.8648 161.544C32.8648 140.584 49.8622 123.587 70.822 123.587C91.7819 123.587 108.779 140.584 108.779 161.544C108.779 182.504 91.7819 199.501 70.822 199.501Z" fill="url(#paint9_radial_1542_2967)"/>
<path style="mix-blend-mode:screen" opacity="0.5" d="M35.4892 126.229C32.1696 129.548 29.3194 133.337 27.0253 137.473C26.9731 137.56 26.921 137.647 26.8688 137.734C26.7819 137.89 26.7124 138.047 26.6255 138.186C22.9584 145.155 20.8555 153.098 20.8555 161.544C20.8555 162.587 20.8902 163.612 20.9597 164.638C21.3421 171.051 22.9584 177.134 25.5306 182.66C25.6175 182.852 25.687 183.025 25.7739 183.217C25.8087 183.286 25.8608 183.373 25.8956 183.442C25.913 183.495 25.9477 183.547 25.9651 183.599C29.667 191.107 39.7298 192.636 45.6563 186.71L54.3114 178.055C47.4811 171.225 45.7779 161.179 49.1843 152.75C51.3916 147.293 50.3314 141.071 46.1777 136.9L35.4892 126.211V126.229Z" fill="url(#paint10_linear_1542_2967)"/>
<path style="mix-blend-mode:screen" opacity="0.3" d="M87.3328 145.051C93.8849 151.586 95.7272 161.092 92.8422 169.295C90.6176 175.674 92.0079 182.747 96.77 187.509L106.138 196.877C115.175 187.84 120.771 175.361 120.771 161.561C120.771 160.102 120.702 158.642 120.58 157.217C119.155 140.671 99.0641 133.32 87.3154 145.068L87.3328 145.051Z" fill="url(#paint11_linear_1542_2967)"/>
<path style="mix-blend-mode:screen" opacity="0.5" d="M33.474 181.791C34.5341 185.98 36.359 189.838 38.8095 193.227C36.6197 191.02 34.7079 188.656 33.0742 186.171C33.1264 184.694 33.2654 183.234 33.474 181.791Z" fill="url(#paint12_linear_1542_2967)"/>
<path style="mix-blend-mode:screen" d="M51.1831 143.278C37.4705 152.541 23.5146 162.083 30.3448 181.079C22.2806 164.342 24.4705 142.878 39.0347 129.774C50.9919 119.016 64.1657 134.501 51.1831 143.278Z" fill="url(#paint13_linear_1542_2967)"/>
<path style="mix-blend-mode:screen" opacity="0.75" d="M71.1697 116.635C62.3582 116.635 53.5293 119.068 45.917 124.143C58.1523 119.781 63.2967 129.096 70.6309 134.015C77.9999 138.951 87.0547 134.797 87.0199 126.733C87.0026 122.648 83.4745 116.635 71.1697 116.635Z" fill="url(#paint14_linear_1542_2967)"/>
<g clip-path="url(#clip0_1542_2967)">
<path d="M75.4003 180C69.0049 180 63.7747 174.732 63.7747 168.233C63.7747 161.734 68.979 156.466 75.4003 156.466C81.8216 156.466 87.0259 161.734 87.0259 168.233C87.0259 174.732 81.8216 180 75.4003 180ZM75.4003 157.803C69.704 157.803 65.0693 162.494 65.0693 168.259C65.0693 174.025 69.704 178.716 75.4003 178.716C81.0966 178.716 85.7313 174.025 85.7313 168.259C85.7313 162.494 81.0966 157.803 75.4003 157.803ZM58.6221 162.625C53.8579 162.625 50 158.694 50 153.898C50 149.102 53.8838 145.145 58.6221 145.145C63.3604 145.145 67.2442 149.076 67.2442 153.872C67.2442 158.668 63.3604 162.599 58.6221 162.599V162.625ZM58.6221 146.455C54.5829 146.455 51.2946 149.783 51.2946 153.898C51.2946 158.012 54.5829 161.314 58.6221 161.314C62.6613 161.314 65.9496 157.986 65.9496 153.898C65.9496 149.81 62.6613 146.481 58.6221 146.481V146.455ZM74.2092 155.156C70.6361 155.156 67.7103 152.221 67.7103 148.578C67.7103 144.935 70.6102 142 74.2092 142C77.8083 142 80.7082 144.935 80.7082 148.578C80.7082 152.221 77.8083 155.156 74.2092 155.156ZM74.2092 143.31C71.3352 143.31 69.0049 145.669 69.0049 148.578C69.0049 151.487 71.3352 153.846 74.2092 153.846C77.0833 153.846 79.4136 151.487 79.4136 148.578C79.4136 145.669 77.0833 143.31 74.2092 143.31Z" fill="#E5D1BD"/>
</g>
<path d="M231.549 297.575C259.144 297.575 281.515 275.204 281.515 247.608C281.515 220.013 259.144 197.642 231.549 197.642C203.953 197.642 181.582 220.013 181.582 247.608C181.582 275.204 203.953 297.575 231.549 297.575Z" fill="url(#paint15_linear_1542_2967)"/>
<path style="mix-blend-mode:color-burn" opacity="0.5" d="M231.549 297.575C259.144 297.575 281.515 275.204 281.515 247.608C281.515 220.013 259.144 197.642 231.549 197.642C203.953 197.642 181.582 220.013 181.582 247.608C181.582 275.204 203.953 297.575 231.549 297.575Z" fill="url(#paint16_linear_1542_2967)"/>
<path style="mix-blend-mode:multiply" opacity="0.5" d="M231.549 297.575C259.144 297.575 281.515 275.204 281.515 247.608C281.515 220.013 259.144 197.642 231.549 197.642C203.953 197.642 181.582 220.013 181.582 247.608C181.582 275.204 203.953 297.575 231.549 297.575Z" fill="url(#paint17_linear_1542_2967)"/>
<g clip-path="url(#clip1_1542_2967)">
<path d="M214.939 256.786L214.659 256.148C213.561 253.747 213 251.168 213 248.487C213 238.912 220.196 230.996 229.714 230.077L230.403 230V240.546L229.892 240.648C226.192 241.414 223.488 244.708 223.488 248.487C223.488 249.355 223.615 250.224 223.896 251.015L224.074 251.5L214.939 256.761V256.786ZM229.127 231.43C220.604 232.579 214.276 239.805 214.276 248.487C214.276 250.734 214.71 252.93 215.526 254.973L222.543 250.939C222.339 250.147 222.212 249.33 222.212 248.487C222.212 244.274 225.095 240.571 229.127 239.499V231.43ZM231.5 267C225.554 267 219.915 264.115 216.445 259.263L216.037 258.701L225.172 253.415L225.529 253.798C227.034 255.509 229.229 256.505 231.526 256.505C233.822 256.505 235.991 255.509 237.522 253.798L237.879 253.415L247.014 258.701L246.606 259.263C243.136 264.115 237.522 267 231.551 267H231.5ZM217.899 259.084C221.166 263.272 226.192 265.723 231.5 265.723C236.808 265.723 241.834 263.246 245.101 259.084L238.083 255.024C236.348 256.786 233.975 257.782 231.5 257.782C229.025 257.782 226.652 256.786 224.917 255.024L217.899 259.084ZM248.061 256.786L238.926 251.526L239.079 251.041C239.359 250.224 239.487 249.381 239.487 248.513C239.487 244.708 236.782 241.414 233.082 240.674L232.572 240.571V230L233.261 230.077C242.779 230.996 249.974 238.912 249.974 248.513C249.974 251.194 249.413 253.773 248.316 256.173L248.035 256.812L248.061 256.786ZM240.457 250.939L247.474 254.973C248.316 252.905 248.724 250.734 248.724 248.487C248.724 239.805 242.396 232.579 233.873 231.404V239.499C237.905 240.571 240.788 244.248 240.788 248.487C240.788 249.33 240.686 250.147 240.457 250.939Z" fill="#E5D1BD"/>
</g>
<path style="mix-blend-mode:overlay" opacity="0.75" d="M231.549 197.642C203.95 197.642 181.582 220.009 181.582 247.608C181.582 275.207 203.95 297.575 231.549 297.575C259.148 297.575 281.515 275.207 281.515 247.608C281.515 220.009 259.148 197.642 231.549 197.642ZM231.549 285.566C210.589 285.566 193.591 268.568 193.591 247.608C193.591 226.648 210.589 209.651 231.549 209.651C252.509 209.651 269.506 226.648 269.506 247.608C269.506 268.568 252.509 285.566 231.549 285.566Z" fill="url(#paint18_radial_1542_2967)"/>
<path style="mix-blend-mode:screen" opacity="0.5" d="M196.216 212.293C192.897 215.612 190.047 219.401 187.752 223.537C187.7 223.624 187.648 223.711 187.596 223.798C187.509 223.955 187.44 224.111 187.353 224.25C183.651 231.219 181.548 239.162 181.548 247.608C181.548 248.651 181.583 249.676 181.652 250.702C182.034 257.115 183.651 263.198 186.223 268.725C186.31 268.916 186.379 269.09 186.466 269.281C186.501 269.35 186.553 269.437 186.588 269.507C186.605 269.559 186.64 269.611 186.657 269.663C190.359 277.171 200.422 278.701 206.349 272.774L215.004 264.119C208.174 257.289 206.47 247.243 209.877 238.814C212.084 233.357 211.024 227.135 206.87 222.964L196.182 212.275L196.216 212.293Z" fill="url(#paint19_linear_1542_2967)"/>
<path style="mix-blend-mode:screen" opacity="0.3" d="M248.06 231.115C254.612 237.65 256.455 247.156 253.57 255.36C251.345 261.738 252.735 268.812 257.498 273.574L266.865 282.941C275.903 273.904 281.499 261.425 281.499 247.626C281.499 246.166 281.429 244.706 281.308 243.281C279.883 226.735 259.792 219.384 248.043 231.132L248.06 231.115Z" fill="url(#paint20_linear_1542_2967)"/>
<path style="mix-blend-mode:screen" opacity="0.5" d="M194.201 267.856C195.262 272.044 197.087 275.902 199.537 279.291C197.347 277.084 195.435 274.721 193.802 272.235C193.854 270.758 193.993 269.298 194.201 267.856Z" fill="url(#paint21_linear_1542_2967)"/>
<path style="mix-blend-mode:screen" d="M211.911 229.342C198.198 238.606 184.242 248.147 191.072 267.143C183.008 250.406 185.198 228.943 199.762 215.838C211.719 205.08 224.893 220.565 211.911 229.342Z" fill="url(#paint22_linear_1542_2967)"/>
<path style="mix-blend-mode:screen" opacity="0.75" d="M231.881 202.699C223.069 202.699 214.24 205.132 206.628 210.207C218.863 205.845 224.008 215.16 231.342 220.079C238.711 225.015 247.766 220.861 247.731 212.797C247.713 208.713 244.185 202.699 231.881 202.699Z" fill="url(#paint23_linear_1542_2967)"/>
<path d="M220.773 117.313C248.369 117.313 270.74 94.942 270.74 67.3462C270.74 39.7504 248.369 17.3796 220.773 17.3796C193.177 17.3796 170.807 39.7504 170.807 67.3462C170.807 94.942 193.177 117.313 220.773 117.313Z" fill="url(#paint24_linear_1542_2967)"/>
<path style="mix-blend-mode:color-burn" opacity="0.2" d="M220.773 117.313C248.369 117.313 270.74 94.942 270.74 67.3462C270.74 39.7504 248.369 17.3796 220.773 17.3796C193.177 17.3796 170.807 39.7504 170.807 67.3462C170.807 94.942 193.177 117.313 220.773 117.313Z" fill="url(#paint25_linear_1542_2967)"/>
<path style="mix-blend-mode:multiply" opacity="0.2" d="M220.773 117.313C248.369 117.313 270.74 94.942 270.74 67.3462C270.74 39.7504 248.369 17.3796 220.773 17.3796C193.177 17.3796 170.807 39.7504 170.807 67.3462C170.807 94.942 193.177 117.313 220.773 117.313Z" fill="url(#paint26_linear_1542_2967)"/>
<path style="mix-blend-mode:overlay" opacity="0.75" d="M220.757 17.3796C193.158 17.3796 170.79 39.7473 170.79 67.3462C170.79 94.9452 193.158 117.313 220.757 117.313C248.356 117.313 270.723 94.9452 270.723 67.3462C270.723 39.7473 248.356 17.3796 220.757 17.3796ZM220.757 105.303C199.797 105.303 182.799 88.3061 182.799 67.3462C182.799 46.3863 199.797 29.389 220.757 29.389C241.717 29.389 258.714 46.3863 258.714 67.3462C258.714 88.3061 241.717 105.303 220.757 105.303Z" fill="url(#paint27_radial_1542_2967)"/>
<path style="mix-blend-mode:screen" opacity="0.5" d="M185.441 32.0134C182.121 35.3329 179.271 39.1216 176.977 43.258C176.925 43.3449 176.873 43.4318 176.821 43.5187C176.734 43.6751 176.664 43.8315 176.577 43.9706C172.875 50.9398 170.772 58.8823 170.772 67.3289C170.772 68.3716 170.807 69.397 170.877 70.4224C171.259 76.8355 172.875 82.9184 175.448 88.4452C175.534 88.6363 175.604 88.8101 175.691 89.0013C175.726 89.0708 175.778 89.1577 175.813 89.2273C175.83 89.2794 175.865 89.3315 175.882 89.3837C179.584 96.8917 189.647 98.4211 195.573 92.4946L204.228 83.8396C197.398 77.0093 195.695 66.9639 199.101 58.5347C201.309 53.0775 200.248 46.8556 196.095 42.6845L185.406 31.996L185.441 32.0134Z" fill="url(#paint28_linear_1542_2967)"/>
<path style="mix-blend-mode:screen" opacity="0.3" d="M237.285 50.8356C243.837 57.3703 245.679 66.877 242.794 75.0802C240.57 81.4586 241.96 88.5321 246.722 93.2941L256.09 102.662C265.127 93.6244 270.723 81.1457 270.723 67.3463C270.723 65.8864 270.654 64.4265 270.532 63.0014C269.107 46.4559 249.016 39.1043 237.268 50.853L237.285 50.8356Z" fill="url(#paint29_linear_1542_2967)"/>
<path style="mix-blend-mode:screen" opacity="0.5" d="M183.408 87.5935C184.468 91.782 186.293 95.6403 188.743 99.0293C186.553 96.8221 184.642 94.4585 183.008 91.9732C183.06 90.4959 183.199 89.036 183.408 87.5935Z" fill="url(#paint30_linear_1542_2967)"/>
<path style="mix-blend-mode:screen" d="M201.135 49.0802C187.423 58.3435 173.467 67.885 180.297 86.881C172.233 70.1443 174.423 48.6804 188.987 35.5761C200.944 24.8181 214.118 40.3034 201.135 49.0802Z" fill="url(#paint31_linear_1542_2967)"/>
<path style="mix-blend-mode:screen" opacity="0.75" d="M221.105 22.4371C212.294 22.4371 203.465 24.8703 195.853 29.9452C208.088 25.5829 213.232 34.8984 220.566 39.8168C227.935 44.7526 236.99 40.5989 236.955 32.5347C236.938 28.4505 233.41 22.4371 221.105 22.4371Z" fill="url(#paint32_linear_1542_2967)"/>
<g clip-path="url(#clip2_1542_2967)">
<path d="M217.422 67.3002H204V62.6998H217.422V67.3002ZM205.276 66.0363H216.146V63.9637H205.276V66.0363ZM224.49 60.4502H204V55.8499H224.49V60.4502ZM205.276 59.1864H223.214V57.1137H205.276V59.1864ZM230.946 74.1501H204V69.5498H230.946V74.1501ZM205.276 72.8863H229.67V70.8136H205.276V72.8863ZM212.523 53.6003H204V49H212.523V53.6003ZM205.276 52.3365H211.247V50.2638H205.276V52.3365ZM241 81H204V76.3997H241V81ZM205.276 79.7362H239.724V77.6635H205.276V79.7362Z" fill="#EDEDED"/>
</g>
<path d="M144.998 143.636V180H138.411V143.636H144.998ZM182.064 143.636V180H176.205L159.071 155.231H158.769V180H152.181V143.636H158.076L175.193 168.423H175.512V143.636H182.064ZM209.054 153.633C208.888 152.082 208.19 150.875 206.959 150.011C205.74 149.147 204.153 148.714 202.2 148.714C200.827 148.714 199.649 148.922 198.667 149.336C197.684 149.75 196.933 150.312 196.412 151.023C195.891 151.733 195.625 152.544 195.613 153.455C195.613 154.213 195.785 154.87 196.128 155.426C196.483 155.982 196.962 156.456 197.566 156.847C198.17 157.225 198.839 157.545 199.572 157.805C200.306 158.066 201.046 158.285 201.792 158.462L205.201 159.315C206.574 159.634 207.894 160.066 209.161 160.611C210.439 161.155 211.581 161.842 212.587 162.67C213.605 163.499 214.41 164.499 215.002 165.671C215.594 166.843 215.89 168.216 215.89 169.79C215.89 171.921 215.345 173.797 214.256 175.419C213.167 177.029 211.593 178.29 209.533 179.201C207.486 180.101 205.006 180.55 202.094 180.55C199.265 180.55 196.808 180.112 194.725 179.237C192.654 178.361 191.032 177.082 189.86 175.401C188.7 173.72 188.073 171.673 187.978 169.258H194.459C194.554 170.524 194.944 171.578 195.631 172.418C196.317 173.259 197.211 173.886 198.312 174.3C199.425 174.715 200.667 174.922 202.041 174.922C203.473 174.922 204.728 174.709 205.805 174.283C206.894 173.845 207.746 173.241 208.362 172.472C208.977 171.69 209.291 170.779 209.303 169.737C209.291 168.79 209.013 168.009 208.468 167.393C207.924 166.766 207.16 166.245 206.178 165.831C205.207 165.405 204.071 165.026 202.768 164.695L198.631 163.629C195.637 162.86 193.269 161.694 191.529 160.131C189.801 158.557 188.937 156.468 188.937 153.864C188.937 151.721 189.517 149.845 190.677 148.235C191.849 146.625 193.441 145.376 195.453 144.489C197.465 143.589 199.744 143.139 202.289 143.139C204.87 143.139 207.13 143.589 209.072 144.489C211.025 145.376 212.558 146.613 213.67 148.2C214.783 149.774 215.357 151.585 215.393 153.633H209.054Z" fill="#BBBBBB"/>
<defs>
<linearGradient id="paint0_linear_1542_2967" x1="83.1088" y1="263.476" x2="256.767" y2="263.476" gradientUnits="userSpaceOnUse">
<stop stop-color="#AC2A90"/>
<stop offset="0.16" stop-color="#A3288B"/>
<stop offset="0.42" stop-color="#8A257F"/>
<stop offset="0.75" stop-color="#63216C"/>
<stop offset="1" stop-color="#411D5C"/>
</linearGradient>
<linearGradient id="paint1_linear_1542_2967" x1="245.349" y1="203.36" x2="245.349" y2="45.1871" gradientUnits="userSpaceOnUse">
<stop stop-color="#FEDA09"/>
<stop offset="1" stop-color="#CA7829"/>
</linearGradient>
<linearGradient id="paint2_linear_1542_2967" x1="94.5106" y1="203.36" x2="94.5106" y2="45.1873" gradientUnits="userSpaceOnUse">
<stop stop-color="#630F41"/>
<stop offset="0.05" stop-color="#74113D"/>
<stop offset="0.19" stop-color="#991735"/>
<stop offset="0.33" stop-color="#B81B2F"/>
<stop offset="0.47" stop-color="#CF1F2A"/>
<stop offset="0.62" stop-color="#E02226"/>
<stop offset="0.79" stop-color="#EA2324"/>
<stop offset="1" stop-color="#EE2424"/>
</linearGradient>
<radialGradient id="paint3_radial_1542_2967" cx="0" cy="0" r="1" gradientUnits="userSpaceOnUse" gradientTransform="translate(86.8988 185.963) rotate(90) scale(50.4011 50.4011)">
<stop stop-color="#333333"/>
<stop offset="0.715" stop-color="#DADADA"/>
<stop offset="1" stop-color="white"/>
</radialGradient>
<radialGradient id="paint4_radial_1542_2967" cx="0" cy="0" r="1" gradientUnits="userSpaceOnUse" gradientTransform="translate(255.481 265.909) rotate(90) scale(50.4011 50.4011)">
<stop stop-color="#333333"/>
<stop offset="0.715" stop-color="#DADADA"/>
<stop offset="1" stop-color="white"/>
</radialGradient>
<radialGradient id="paint5_radial_1542_2967" cx="0" cy="0" r="1" gradientUnits="userSpaceOnUse" gradientTransform="translate(238.102 99.0641) rotate(90) scale(50.4011 50.4011)">
<stop stop-color="#333333"/>
<stop offset="0.715" stop-color="#DADADA"/>
<stop offset="1" stop-color="white"/>
</radialGradient>
<linearGradient id="paint6_linear_1542_2967" x1="35.4892" y1="126.211" x2="106.155" y2="196.877" gradientUnits="userSpaceOnUse">
<stop stop-color="#FFD872"/>
<stop offset="1" stop-color="#EA00AE"/>
</linearGradient>
<linearGradient id="paint7_linear_1542_2967" x1="106.155" y1="196.877" x2="35.4892" y2="126.211" gradientUnits="userSpaceOnUse">
<stop stop-color="#303030"/>
<stop offset="1" stop-color="white"/>
</linearGradient>
<linearGradient id="paint8_linear_1542_2967" x1="106.155" y1="196.877" x2="35.4892" y2="126.211" gradientUnits="userSpaceOnUse">
<stop/>
<stop offset="1" stop-color="white"/>
</linearGradient>
<radialGradient id="paint9_radial_1542_2967" cx="0" cy="0" r="1" gradientUnits="userSpaceOnUse" gradientTransform="translate(69.9711 160.707) scale(49.9416 49.9415)">
<stop stop-color="#303030"/>
<stop offset="0.21" stop-color="#323232"/>
<stop offset="0.36" stop-color="#3B3B3B"/>
<stop offset="0.48" stop-color="#4A4A4A"/>
<stop offset="0.6" stop-color="#606060"/>
<stop offset="0.7" stop-color="#7C7C7C"/>
<stop offset="0.8" stop-color="#9E9E9E"/>
<stop offset="0.89" stop-color="#C7C7C7"/>
<stop offset="0.98" stop-color="#F4F4F4"/>
<stop offset="1" stop-color="white"/>
</radialGradient>
<linearGradient id="paint10_linear_1542_2967" x1="18.9611" y1="140.08" x2="52.9905" y2="180.627" gradientUnits="userSpaceOnUse">
<stop stop-color="white"/>
<stop offset="1"/>
</linearGradient>
<linearGradient id="paint11_linear_1542_2967" x1="104.052" y1="139.298" x2="104.052" y2="196.86" gradientUnits="userSpaceOnUse">
<stop stop-color="white"/>
<stop offset="1"/>
</linearGradient>
<linearGradient id="paint12_linear_1542_2967" x1="35.9419" y1="193.227" x2="35.9419" y2="181.791" gradientUnits="userSpaceOnUse">
<stop stop-color="white"/>
<stop offset="1"/>
</linearGradient>
<linearGradient id="paint13_linear_1542_2967" x1="41.1376" y1="126.107" x2="41.1376" y2="181.079" gradientUnits="userSpaceOnUse">
<stop stop-color="white"/>
<stop offset="0.16" stop-color="#C2C2C2"/>
<stop offset="0.32" stop-color="#878787"/>
<stop offset="0.49" stop-color="#575757"/>
<stop offset="0.64" stop-color="#313131"/>
<stop offset="0.78" stop-color="#161616"/>
<stop offset="0.9" stop-color="#050505"/>
<stop offset="1"/>
</linearGradient>
<linearGradient id="paint14_linear_1542_2967" x1="61.1764" y1="115.227" x2="74.9758" y2="139.124" gradientUnits="userSpaceOnUse">
<stop stop-color="white"/>
<stop offset="1"/>
</linearGradient>
<linearGradient id="paint15_linear_1542_2967" x1="196.216" y1="212.293" x2="266.881" y2="282.941" gradientUnits="userSpaceOnUse">
<stop stop-color="#FF3BCC"/>
<stop offset="0.22" stop-color="#CB2AB9"/>
<stop offset="0.48" stop-color="#9518A6"/>
<stop offset="0.71" stop-color="#6D0A97"/>
<stop offset="0.89" stop-color="#54028F"/>
<stop offset="1" stop-color="#4C008C"/>
</linearGradient>
<linearGradient id="paint16_linear_1542_2967" x1="266.881" y1="282.941" x2="196.216" y2="212.293" gradientUnits="userSpaceOnUse">
<stop stop-color="#303030"/>
<stop offset="1" stop-color="white"/>
</linearGradient>
<linearGradient id="paint17_linear_1542_2967" x1="266.881" y1="282.941" x2="196.216" y2="212.293" gradientUnits="userSpaceOnUse">
<stop/>
<stop offset="1" stop-color="white"/>
</linearGradient>
<radialGradient id="paint18_radial_1542_2967" cx="0" cy="0" r="1" gradientUnits="userSpaceOnUse" gradientTransform="translate(230.529 246.606) scale(49.9415 49.9416)">
<stop stop-color="#303030"/>
<stop offset="0.21" stop-color="#323232"/>
<stop offset="0.36" stop-color="#3B3B3B"/>
<stop offset="0.48" stop-color="#4A4A4A"/>
<stop offset="0.6" stop-color="#606060"/>
<stop offset="0.7" stop-color="#7C7C7C"/>
<stop offset="0.8" stop-color="#9E9E9E"/>
<stop offset="0.89" stop-color="#C7C7C7"/>
<stop offset="0.98" stop-color="#F4F4F4"/>
<stop offset="1" stop-color="white"/>
</radialGradient>
<linearGradient id="paint19_linear_1542_2967" x1="179.688" y1="226.162" x2="213.7" y2="266.709" gradientUnits="userSpaceOnUse">
<stop stop-color="white"/>
<stop offset="1"/>
</linearGradient>
<linearGradient id="paint20_linear_1542_2967" x1="264.78" y1="225.362" x2="264.78" y2="282.941" gradientUnits="userSpaceOnUse">
<stop stop-color="white"/>
<stop offset="1"/>
</linearGradient>
<linearGradient id="paint21_linear_1542_2967" x1="196.669" y1="279.291" x2="196.669" y2="267.856" gradientUnits="userSpaceOnUse">
<stop stop-color="white"/>
<stop offset="1"/>
</linearGradient>
<linearGradient id="paint22_linear_1542_2967" x1="201.865" y1="212.171" x2="201.865" y2="267.143" gradientUnits="userSpaceOnUse">
<stop stop-color="white"/>
<stop offset="0.16" stop-color="#C2C2C2"/>
<stop offset="0.32" stop-color="#878787"/>
<stop offset="0.49" stop-color="#575757"/>
<stop offset="0.64" stop-color="#313131"/>
<stop offset="0.78" stop-color="#161616"/>
<stop offset="0.9" stop-color="#050505"/>
<stop offset="1"/>
</linearGradient>
<linearGradient id="paint23_linear_1542_2967" x1="221.887" y1="201.291" x2="235.687" y2="225.206" gradientUnits="userSpaceOnUse">
<stop stop-color="white"/>
<stop offset="1"/>
</linearGradient>
<linearGradient id="paint24_linear_1542_2967" x1="185.44" y1="32.0133" x2="256.089" y2="102.679" gradientUnits="userSpaceOnUse">
<stop stop-color="#FFED00"/>
<stop offset="1" stop-color="#C7248B"/>
</linearGradient>
<linearGradient id="paint25_linear_1542_2967" x1="256.089" y1="102.679" x2="185.44" y2="32.0133" gradientUnits="userSpaceOnUse">
<stop stop-color="#303030"/>
<stop offset="1" stop-color="white"/>
</linearGradient>
<linearGradient id="paint26_linear_1542_2967" x1="256.089" y1="102.679" x2="185.44" y2="32.0133" gradientUnits="userSpaceOnUse">
<stop/>
<stop offset="1" stop-color="white"/>
</linearGradient>
<radialGradient id="paint27_radial_1542_2967" cx="0" cy="0" r="1" gradientUnits="userSpaceOnUse" gradientTransform="translate(237.809 85.5483) scale(50.4789 50.4789)">
<stop stop-color="#303030"/>
<stop offset="0.21" stop-color="#323232"/>
<stop offset="0.36" stop-color="#3B3B3B"/>
<stop offset="0.48" stop-color="#4A4A4A"/>
<stop offset="0.6" stop-color="#606060"/>
<stop offset="0.7" stop-color="#7C7C7C"/>
<stop offset="0.8" stop-color="#9E9E9E"/>
<stop offset="0.89" stop-color="#C7C7C7"/>
<stop offset="0.98" stop-color="#F4F4F4"/>
<stop offset="1" stop-color="white"/>
</radialGradient>
<linearGradient id="paint28_linear_1542_2967" x1="168.913" y1="45.8823" x2="202.925" y2="86.4291" gradientUnits="userSpaceOnUse">
<stop stop-color="white"/>
<stop offset="1"/>
</linearGradient>
<linearGradient id="paint29_linear_1542_2967" x1="254.004" y1="45.1003" x2="254.004" y2="102.662" gradientUnits="userSpaceOnUse">
<stop stop-color="white"/>
<stop offset="1"/>
</linearGradient>
<linearGradient id="paint30_linear_1542_2967" x1="185.893" y1="99.012" x2="185.893" y2="87.5935" gradientUnits="userSpaceOnUse">
<stop stop-color="white"/>
<stop offset="1"/>
</linearGradient>
<linearGradient id="paint31_linear_1542_2967" x1="191.072" y1="31.909" x2="191.072" y2="86.881" gradientUnits="userSpaceOnUse">
<stop stop-color="white"/>
<stop offset="0.16" stop-color="#C2C2C2"/>
<stop offset="0.32" stop-color="#878787"/>
<stop offset="0.49" stop-color="#575757"/>
<stop offset="0.64" stop-color="#313131"/>
<stop offset="0.78" stop-color="#161616"/>
<stop offset="0.9" stop-color="#050505"/>
<stop offset="1"/>
</linearGradient>
<linearGradient id="paint32_linear_1542_2967" x1="211.112" y1="21.0294" x2="224.911" y2="44.9264" gradientUnits="userSpaceOnUse">
<stop stop-color="white"/>
<stop offset="1"/>
</linearGradient>
<clipPath id="clip0_1542_2967">
<rect width="37" height="38" fill="white" transform="translate(50 142)"/>
</clipPath>
<clipPath id="clip1_1542_2967">
<rect width="37" height="37" fill="white" transform="translate(213 230)"/>
</clipPath>
<clipPath id="clip2_1542_2967">
<rect width="37" height="32" fill="white" transform="translate(204 49)"/>
</clipPath>
</defs>
</svg>
