<?xml version="1.0" encoding="UTF-8"?><svg id="Layer_1" xmlns="http://www.w3.org/2000/svg" viewBox="0 0 394 100"><defs><style>.cls-1{fill:#fff;}.cls-2{fill:#bb0e3d;}.cls-3{fill:#ba1f40;}.cls-4{fill:#606061;}.cls-5{fill:#606060;}</style></defs><g><g><path class="cls-4" d="M97.99,50l-15-27H28.76c-3.19,0-5.77,2.59-5.77,5.79v42.43c0,3.2,2.58,5.79,5.77,5.79h54.23l15-27Z"/><path class="cls-3" d="M96.5,25.81c-1.06-1.75-2.96-2.81-5.02-2.81h-4.49l15.2,27-15.2,27h4.49c2.06,0,3.96-1.07,5.02-2.81l13.5-24.19-13.5-24.19Z"/></g><g><rect class="cls-1" x="54.99" y="38" width="4" height="24"/><polygon class="cls-1" points="46.99 38 46.99 55.6 35.99 38 31.99 38 31.99 62 35.99 62 35.99 44.4 46.99 62 50.99 62 50.99 38 46.99 38"/><polygon class="cls-1" points="77.99 38 77.99 48 66.99 48 66.99 38 62.99 38 62.99 62 66.99 62 66.99 52 77.99 52 77.99 62 81.99 62 81.99 38 77.99 38"/></g></g><g><path class="cls-2" d="M130.85,31h2.5v11.18h-2.5l-5.33-7.01v7.01h-2.5v-11.18h2.34l5.49,7.2v-7.2Z"/><path class="cls-2" d="M144.06,42.18l-1.04-2.42h-4.69l-1.04,2.42h-2.66l4.83-11.18h2.42l4.83,11.18h-2.66Zm-3.38-7.86l-1.41,3.25h2.8l-1.39-3.25Z"/><path class="cls-2" d="M151.94,33.16v9.02h-2.5v-9.02h-3.17v-2.16h8.83v2.16h-3.17Z"/><path class="cls-2" d="M156.93,31h2.5v11.18h-2.5v-11.18Z"/><path class="cls-2" d="M171.58,40.64c-1.13,1.1-2.52,1.66-4.18,1.66s-3.05-.55-4.18-1.66c-1.13-1.1-1.7-2.48-1.7-4.12s.57-3.02,1.7-4.12c1.13-1.1,2.52-1.66,4.18-1.66s3.04,.55,4.18,1.66c1.13,1.1,1.7,2.48,1.7,4.12s-.57,3.02-1.7,4.12Zm-.85-4.11c0-1-.32-1.85-.96-2.55-.64-.7-1.43-1.06-2.36-1.06s-1.72,.35-2.36,1.06c-.64,.7-.96,1.55-.96,2.55s.32,1.85,.96,2.54c.64,.7,1.43,1.05,2.36,1.05s1.72-.35,2.36-1.05c.64-.7,.96-1.55,.96-2.54Z"/><path class="cls-2" d="M183.22,31h2.5v11.18h-2.5l-5.33-7.01v7.01h-2.5v-11.18h2.34l5.49,7.2v-7.2Z"/><path class="cls-2" d="M196.43,42.18l-1.04-2.42h-4.69l-1.04,2.42h-2.66l4.83-11.18h2.42l4.83,11.18h-2.66Zm-3.38-7.86l-1.41,3.25h2.8l-1.39-3.25Z"/><path class="cls-2" d="M200.38,42.18v-11.18h2.5v8.96h4.77v2.22h-7.26Z"/><path class="cls-2" d="M218.83,39.98c1.23,0,2.23-.49,3.01-1.46l1.6,1.65c-1.27,1.43-2.77,2.14-4.49,2.14s-3.14-.54-4.26-1.63c-1.11-1.09-1.67-2.46-1.67-4.12s.57-3.04,1.7-4.15c1.14-1.11,2.53-1.66,4.17-1.66,1.83,0,3.37,.7,4.61,2.1l-1.55,1.76c-.79-.98-1.77-1.47-2.94-1.47-.94,0-1.74,.31-2.41,.92-.67,.61-1,1.44-1,2.48s.31,1.88,.94,2.5c.63,.63,1.39,.94,2.29,.94Z"/><path class="cls-2" d="M233.3,42.18l-1.04-2.42h-4.69l-1.04,2.42h-2.66l4.83-11.18h2.42l4.83,11.18h-2.66Zm-3.38-7.86l-1.41,3.25h2.8l-1.39-3.25Z"/><path class="cls-2" d="M245.07,31h2.5v11.18h-2.5l-5.33-7.01v7.01h-2.5v-11.18h2.34l5.49,7.2v-7.2Z"/><path class="cls-2" d="M255.46,39.98c1.23,0,2.23-.49,3.01-1.46l1.6,1.65c-1.27,1.43-2.77,2.14-4.49,2.14s-3.14-.54-4.26-1.63c-1.12-1.09-1.67-2.46-1.67-4.12s.57-3.04,1.7-4.15c1.14-1.11,2.52-1.66,4.17-1.66,1.83,0,3.37,.7,4.61,2.1l-1.55,1.76c-.79-.98-1.77-1.47-2.94-1.47-.94,0-1.74,.31-2.41,.92-.67,.61-1,1.44-1,2.48s.32,1.88,.94,2.5c.63,.63,1.39,.94,2.29,.94Z"/><path class="cls-2" d="M270.09,31v2.22h-5.57v2.3h5.01v2.13h-5.01v2.32h5.74v2.21h-8.24v-11.18h8.06Z"/><path class="cls-2" d="M281.57,34.71c0,1.79-.71,2.95-2.13,3.47l2.83,4h-3.07l-2.48-3.57h-1.73v3.57h-2.5v-11.18h4.24c1.74,0,2.98,.29,3.72,.88s1.11,1.53,1.11,2.83Zm-3.01,1.33c.31-.28,.46-.72,.46-1.32s-.16-1.02-.48-1.24-.88-.34-1.68-.34h-1.87v3.31h1.82c.85,0,1.43-.14,1.74-.42Z"/><path class="cls-2" d="M288.35,31h2.5v11.18h-2.5v-11.18Z"/><path class="cls-2" d="M301.42,31h2.5v11.18h-2.5l-5.33-7.01v7.01h-2.5v-11.18h2.34l5.49,7.2v-7.2Z"/><path class="cls-2" d="M309.29,33.23c-.24,.2-.36,.46-.36,.78s.15,.58,.44,.78c.29,.19,.97,.42,2.03,.68s1.89,.65,2.47,1.18c.59,.52,.88,1.29,.88,2.29s-.38,1.82-1.13,2.44-1.74,.94-2.97,.94c-1.77,0-3.37-.66-4.78-1.97l1.49-1.82c1.21,1.06,2.32,1.58,3.34,1.58,.46,0,.82-.1,1.08-.3,.26-.2,.39-.46,.39-.8s-.14-.6-.42-.8-.83-.4-1.65-.6c-1.3-.31-2.25-.71-2.86-1.21s-.9-1.27-.9-2.34,.38-1.88,1.14-2.46c.76-.58,1.71-.86,2.86-.86,.75,0,1.49,.13,2.24,.38,.75,.26,1.4,.62,1.95,1.09l-1.26,1.82c-.97-.74-1.97-1.1-3.01-1.1-.42,0-.74,.1-.98,.3Z"/><path class="cls-2" d="M321.52,33.16v9.02h-2.5v-9.02h-3.17v-2.16h8.83v2.16h-3.17Z"/><path class="cls-2" d="M326.51,31h2.5v11.18h-2.5v-11.18Z"/><path class="cls-2" d="M336.49,33.16v9.02h-2.5v-9.02h-3.17v-2.16h8.83v2.16h-3.17Z"/><path class="cls-2" d="M344.45,39.3c.42,.52,.98,.78,1.68,.78s1.26-.26,1.67-.78c.41-.52,.62-1.22,.62-2.12v-6.18h2.5v6.26c0,1.62-.45,2.87-1.34,3.74-.9,.87-2.04,1.3-3.44,1.3s-2.55-.44-3.45-1.31c-.9-.87-1.35-2.12-1.35-3.73v-6.26h2.5v6.18c0,.9,.21,1.6,.62,2.12Z"/><path class="cls-2" d="M358.24,33.16v9.02h-2.5v-9.02h-3.17v-2.16h8.83v2.16h-3.17Z"/><path class="cls-2" d="M371.29,31v2.22h-5.57v2.3h5.01v2.13h-5.01v2.32h5.74v2.21h-8.24v-11.18h8.06Z"/></g><g><path class="cls-5" d="M122.76,54.25h3.4v14.7h-3.4v-14.7Z"/><path class="cls-5" d="M140.96,62.48v6.47h-3.28v-5.96c0-1.83-.84-2.67-2.29-2.67-1.57,0-2.71,.97-2.71,3.04v5.58h-3.28v-11.3h3.13v1.32c.88-.97,2.21-1.49,3.74-1.49,2.67,0,4.68,1.55,4.68,5Z"/><path class="cls-5" d="M155.56,53.37v15.58h-3.13v-1.3c-.82,.99-2.02,1.47-3.53,1.47-3.19,0-5.65-2.27-5.65-5.82s2.46-5.82,5.65-5.82c1.38,0,2.56,.44,3.38,1.37v-5.48h3.28Zm-3.21,9.93c0-1.95-1.26-3.13-2.88-3.13s-2.9,1.18-2.9,3.13,1.26,3.13,2.9,3.13,2.88-1.18,2.88-3.13Z"/><path class="cls-5" d="M169.58,64.22h-8.55c.32,1.41,1.51,2.27,3.23,2.27,1.2,0,2.06-.36,2.83-1.09l1.74,1.89c-1.05,1.2-2.62,1.83-4.66,1.83-3.91,0-6.45-2.46-6.45-5.82s2.58-5.82,6.03-5.82,5.88,2.23,5.88,5.86c0,.25-.04,.61-.06,.88Zm-8.59-1.91h5.56c-.23-1.43-1.3-2.35-2.77-2.35s-2.56,.9-2.79,2.35Z"/><path class="cls-5" d="M178.7,68.95l-2.48-3.46-2.56,3.46h-3.57l4.35-5.69-4.2-5.61h3.67l2.39,3.3,2.46-3.3h3.49l-4.2,5.52,4.37,5.77h-3.72Z"/><path class="cls-5" d="M189.12,63.3c0-3.4,2.62-5.82,6.21-5.82s6.19,2.42,6.19,5.82-2.6,5.82-6.19,5.82-6.21-2.42-6.21-5.82Zm9.09,0c0-1.95-1.24-3.13-2.88-3.13s-2.9,1.18-2.9,3.13,1.26,3.13,2.9,3.13,2.88-1.18,2.88-3.13Z"/><path class="cls-5" d="M207.3,57.9h2.9v2.52h-2.81v8.52h-3.28v-8.52h-1.74v-2.52h1.74v-.5c0-2.54,1.55-4.2,4.37-4.2,.92,0,1.89,.19,2.5,.61l-.86,2.37c-.36-.25-.82-.4-1.32-.4-.97,0-1.49,.52-1.49,1.64v.48Z"/><path class="cls-5" d="M231.49,54.25v14.7h-2.79l-7.33-8.92v8.92h-3.36v-14.7h2.81l7.31,8.92v-8.92h3.36Z"/><path class="cls-5" d="M234.05,61.6c0-4.43,3.4-7.6,7.98-7.6,2.54,0,4.66,.92,6.05,2.6l-2.18,2.02c-.99-1.13-2.22-1.72-3.7-1.72-2.75,0-4.7,1.93-4.7,4.7s1.95,4.7,4.7,4.7c1.47,0,2.71-.59,3.7-1.74l2.18,2.02c-1.38,1.7-3.51,2.62-6.07,2.62-4.56,0-7.96-3.17-7.96-7.6Z"/><path class="cls-5" d="M250.37,54.25h3.4v14.7h-3.4v-14.7Z"/><path class="cls-5" d="M262.05,67.5l1.15-2.56c1.24,.9,3.09,1.53,4.85,1.53,2.02,0,2.83-.67,2.83-1.57,0-2.75-8.55-.86-8.55-6.32,0-2.5,2.02-4.58,6.19-4.58,1.85,0,3.74,.44,5.1,1.3l-1.05,2.58c-1.36-.78-2.77-1.16-4.07-1.16-2.02,0-2.79,.76-2.79,1.68,0,2.71,8.55,.84,8.55,6.24,0,2.46-2.04,4.56-6.24,4.56-2.33,0-4.68-.69-5.98-1.7Z"/><path class="cls-5" d="M283.65,68.4c-.67,.48-1.66,.71-2.67,.71-2.67,0-4.22-1.36-4.22-4.05v-4.64h-1.74v-2.52h1.74v-2.75h3.28v2.75h2.81v2.52h-2.81v4.6c0,.97,.52,1.49,1.41,1.49,.48,0,.97-.15,1.32-.42l.88,2.31Z"/><path class="cls-5" d="M296.88,57.65v11.3h-3.11v-1.34c-.86,.99-2.12,1.51-3.51,1.51-2.83,0-4.83-1.6-4.83-5.08v-6.38h3.28v5.9c0,1.89,.84,2.73,2.29,2.73s2.6-.96,2.6-3.04v-5.58h3.28Z"/><path class="cls-5" d="M311.44,53.37v15.58h-3.13v-1.3c-.82,.99-2.02,1.47-3.53,1.47-3.19,0-5.65-2.27-5.65-5.82s2.46-5.82,5.65-5.82c1.39,0,2.56,.44,3.38,1.37v-5.48h3.28Zm-3.21,9.93c0-1.95-1.26-3.13-2.88-3.13s-2.9,1.18-2.9,3.13,1.26,3.13,2.9,3.13,2.88-1.18,2.88-3.13Z"/><path class="cls-5" d="M314.06,54.25c0-1.03,.82-1.83,2.04-1.83s2.04,.76,2.04,1.76c0,1.09-.82,1.89-2.04,1.89s-2.04-.8-2.04-1.83Zm.4,3.4h3.28v11.3h-3.28v-11.3Z"/><path class="cls-5" d="M331.78,64.22h-8.55c.32,1.41,1.51,2.27,3.23,2.27,1.2,0,2.06-.36,2.83-1.09l1.74,1.89c-1.05,1.2-2.62,1.83-4.66,1.83-3.91,0-6.45-2.46-6.45-5.82s2.58-5.82,6.03-5.82,5.88,2.23,5.88,5.86c0,.25-.04,.61-.06,.88Zm-8.59-1.91h5.56c-.23-1.43-1.3-2.35-2.77-2.35s-2.56,.9-2.79,2.35Z"/><path class="cls-5" d="M332.94,67.9l1.09-2.35c1.01,.65,2.54,1.09,3.93,1.09,1.51,0,2.08-.4,2.08-1.03,0-1.85-6.82,.04-6.82-4.47,0-2.14,1.93-3.65,5.23-3.65,1.55,0,3.28,.36,4.35,.99l-1.09,2.33c-1.11-.63-2.23-.84-3.25-.84-1.47,0-2.1,.46-2.1,1.05,0,1.93,6.82,.06,6.82,4.51,0,2.1-1.95,3.59-5.33,3.59-1.91,0-3.84-.52-4.89-1.22Z"/></g></svg>