<?xml version="1.0" encoding="utf-8"?>
<!-- Generator: Adobe Illustrator 26.2.1, SVG Export Plug-In . SVG Version: 6.00 Build 0)  -->
<svg version="1.1" id="Layer_1" xmlns="http://www.w3.org/2000/svg" xmlns:xlink="http://www.w3.org/1999/xlink" x="0px" y="0px"
	 viewBox="0 0 496.6 100" style="enable-background:new 0 0 496.6 100;" xml:space="preserve">
<style type="text/css">
	.st0{fill:#606061;}
	.st1{fill:#BA1F40;}
	.st2{fill:#FFFFFF;}
	.st3{fill:#BB0E3D;}
	.st4{fill:none;}
	.st5{fill:#606060;}
	.st6{font-family:'Montserrat-Bold';}
	.st7{font-size:21px;}
	.st8{fill:none;stroke:#606060;stroke-width:0.125;stroke-miterlimit:10;}
</style>
<g>
	<path class="st0" d="M98,50L83,23H28.8c-3.2,0-5.8,2.6-5.8,5.8v42.4c0,3.2,2.6,5.8,5.8,5.8H83L98,50z"/>
	<path class="st1" d="M96.5,25.8c-1.1-1.7-3-2.8-5-2.8H87l15.2,27L87,77h4.5c2.1,0,4-1.1,5-2.8L110,50L96.5,25.8z"/>
</g>
<g>
	<rect x="55" y="38" class="st2" width="4" height="24"/>
	<polygon class="st2" points="47,38 47,55.6 36,38 32,38 32,62 36,62 36,44.4 47,62 51,62 51,38 	"/>
	<polygon class="st2" points="78,38 78,48 67,48 67,38 63,38 63,62 67,62 67,52 78,52 78,62 82,62 82,38 	"/>
</g>
<g>
	<path class="st3" d="M130.8,31h2.5v11.2h-2.5l-5.3-7v7H123V31h2.3l5.5,7.2V31z"/>
	<path class="st3" d="M144.1,42.2l-1-2.4h-4.7l-1,2.4h-2.7l4.8-11.2h2.4l4.8,11.2H144.1z M140.7,34.3l-1.4,3.2h2.8L140.7,34.3z"/>
	<path class="st3" d="M151.9,33.2v9h-2.5v-9h-3.2V31h8.8v2.2H151.9z"/>
	<path class="st3" d="M156.9,31h2.5v11.2h-2.5V31z"/>
	<path class="st3" d="M171.6,40.6c-1.1,1.1-2.5,1.7-4.2,1.7s-3-0.6-4.2-1.7c-1.1-1.1-1.7-2.5-1.7-4.1s0.6-3,1.7-4.1
		c1.1-1.1,2.5-1.7,4.2-1.7s3,0.6,4.2,1.7c1.1,1.1,1.7,2.5,1.7,4.1C173.3,38.2,172.7,39.5,171.6,40.6z M170.7,36.5c0-1-0.3-1.8-1-2.6
		c-0.6-0.7-1.4-1.1-2.4-1.1s-1.7,0.4-2.4,1.1s-1,1.6-1,2.6s0.3,1.8,1,2.5c0.6,0.7,1.4,1,2.4,1s1.7-0.3,2.4-1
		C170.4,38.4,170.7,37.5,170.7,36.5z"/>
	<path class="st3" d="M183.2,31h2.5v11.2h-2.5l-5.3-7v7h-2.5V31h2.3l5.5,7.2V31z"/>
	<path class="st3" d="M196.4,42.2l-1-2.4h-4.7l-1,2.4H187l4.8-11.2h2.4l4.8,11.2H196.4z M193.1,34.3l-1.4,3.2h2.8L193.1,34.3z"/>
	<path class="st3" d="M200.4,42.2V31h2.5v9h4.8v2.2H200.4z"/>
	<path class="st3" d="M218.8,40c1.2,0,2.2-0.5,3-1.5l1.6,1.6c-1.3,1.4-2.8,2.1-4.5,2.1s-3.1-0.5-4.3-1.6c-1.1-1.1-1.7-2.5-1.7-4.1
		c0-1.7,0.6-3,1.7-4.2c1.1-1.1,2.5-1.7,4.2-1.7c1.8,0,3.4,0.7,4.6,2.1l-1.6,1.8c-0.8-1-1.8-1.5-2.9-1.5c-0.9,0-1.7,0.3-2.4,0.9
		c-0.7,0.6-1,1.4-1,2.5s0.3,1.9,0.9,2.5C217.2,39.7,217.9,40,218.8,40z"/>
	<path class="st3" d="M233.3,42.2l-1-2.4h-4.7l-1,2.4h-2.7l4.8-11.2h2.4l4.8,11.2H233.3z M229.9,34.3l-1.4,3.2h2.8L229.9,34.3z"/>
	<path class="st3" d="M245.1,31h2.5v11.2h-2.5l-5.3-7v7h-2.5V31h2.3l5.5,7.2V31z"/>
	<path class="st3" d="M255.5,40c1.2,0,2.2-0.5,3-1.5l1.6,1.6c-1.3,1.4-2.8,2.1-4.5,2.1s-3.1-0.5-4.3-1.6c-1.1-1.1-1.7-2.5-1.7-4.1
		c0-1.7,0.6-3,1.7-4.2c1.1-1.1,2.5-1.7,4.2-1.7c1.8,0,3.4,0.7,4.6,2.1l-1.6,1.8c-0.8-1-1.8-1.5-2.9-1.5c-0.9,0-1.7,0.3-2.4,0.9
		c-0.7,0.6-1,1.4-1,2.5s0.3,1.9,0.9,2.5C253.8,39.7,254.6,40,255.5,40z"/>
	<path class="st3" d="M270.1,31v2.2h-5.6v2.3h5v2.1h-5V40h5.7v2.2H262V31H270.1z"/>
	<path class="st3" d="M281.6,34.7c0,1.8-0.7,2.9-2.1,3.5l2.8,4h-3.1l-2.5-3.6H275v3.6h-2.5V31h4.2c1.7,0,3,0.3,3.7,0.9
		S281.6,33.4,281.6,34.7z M278.6,36c0.3-0.3,0.5-0.7,0.5-1.3s-0.2-1-0.5-1.2s-0.9-0.3-1.7-0.3H275v3.3h1.8
		C277.7,36.5,278.2,36.3,278.6,36z"/>
	<path class="st3" d="M288.4,31h2.5v11.2h-2.5V31z"/>
	<path class="st3" d="M301.4,31h2.5v11.2h-2.5l-5.3-7v7h-2.5V31h2.3l5.5,7.2V31z"/>
	<path class="st3" d="M309.3,33.2c-0.2,0.2-0.4,0.5-0.4,0.8s0.1,0.6,0.4,0.8s1,0.4,2,0.7s1.9,0.7,2.5,1.2s0.9,1.3,0.9,2.3
		s-0.4,1.8-1.1,2.4s-1.7,0.9-3,0.9c-1.8,0-3.4-0.7-4.8-2l1.5-1.8c1.2,1.1,2.3,1.6,3.3,1.6c0.5,0,0.8-0.1,1.1-0.3
		c0.3-0.2,0.4-0.5,0.4-0.8s-0.1-0.6-0.4-0.8s-0.8-0.4-1.6-0.6c-1.3-0.3-2.3-0.7-2.9-1.2s-0.9-1.3-0.9-2.3s0.4-1.9,1.1-2.5
		c0.8-0.6,1.7-0.9,2.9-0.9c0.7,0,1.5,0.1,2.2,0.4s1.4,0.6,2,1.1l-1.3,1.8c-1-0.7-2-1.1-3-1.1C309.9,32.9,309.5,33,309.3,33.2z"/>
	<path class="st3" d="M321.5,33.2v9H319v-9h-3.2V31h8.8v2.2H321.5z"/>
	<path class="st3" d="M326.5,31h2.5v11.2h-2.5V31z"/>
	<path class="st3" d="M336.5,33.2v9H334v-9h-3.2V31h8.8v2.2H336.5z"/>
	<path class="st3" d="M344.4,39.3c0.4,0.5,1,0.8,1.7,0.8s1.3-0.3,1.7-0.8c0.4-0.5,0.6-1.2,0.6-2.1V31h2.5v6.3c0,1.6-0.4,2.9-1.3,3.7
		c-0.9,0.9-2,1.3-3.4,1.3s-2.5-0.4-3.4-1.3s-1.4-2.1-1.4-3.7V31h2.5v6.2C343.8,38.1,344,38.8,344.4,39.3z"/>
	<path class="st3" d="M358.2,33.2v9h-2.5v-9h-3.2V31h8.8v2.2H358.2z"/>
	<path class="st3" d="M371.3,31v2.2h-5.6v2.3h5v2.1h-5V40h5.7v2.2h-8.2V31H371.3z"/>
</g>
<rect x="120" y="53.2" class="st4" width="628.1" height="54.1"/>
<text transform="matrix(1 0 0 1 119.9835 68.7989)" class="st5 st6 st7">Index of NCI-Funded Studies</text>
<text transform="matrix(1 0 0 1 119.9835 68.7989)" class="st8 st6 st7">Index of NCI-Funded Studies</text>
<path class="st5" d="M389.7,333.3c-0.3-0.3-0.5-0.8-0.5-1.2s0.2-0.9,0.5-1.2s0.8-0.5,1.2-0.5s0.9,0.2,1.2,0.5s0.5,0.8,0.5,1.2
	s-0.2,0.9-0.5,1.2s-0.8,0.5-1.2,0.5S390.1,333.6,389.7,333.3z M392.5,345.4h-3v-10.8h3V345.4z"/>
<path class="st5" d="M404.4,345.4h-2.8v-1.3c-0.8,1-1.7,1.5-2.9,1.5s-2.1-0.3-2.9-1s-1.2-1.5-1.2-2.6s0.4-1.9,1.2-2.5
	s1.9-0.8,3.3-0.8h2.2v-0.1c0-1.1-0.6-1.7-1.8-1.7c-0.5,0-1.1,0.1-1.6,0.3s-1.1,0.5-1.5,0.8l-1.3-1.9c1.4-1,3-1.5,4.8-1.5
	c1.3,0,2.4,0.3,3.2,1c0.8,0.7,1.2,1.7,1.2,3.1L404.4,345.4L404.4,345.4z M401.4,341.3v-0.5h-1.9c-1.2,0-1.8,0.4-1.8,1.1
	c0,0.4,0.1,0.7,0.4,0.9c0.3,0.2,0.7,0.3,1.2,0.3s1-0.2,1.4-0.5C401.2,342.3,401.4,341.8,401.4,341.3z"/>
<path class="st5" d="M410.6,336.8v4.8c0,0.4,0.1,0.7,0.3,1c0.2,0.2,0.5,0.4,0.8,0.4c0.6,0,1-0.3,1.4-0.8l1.1,2.1
	c-0.9,0.9-1.9,1.3-3,1.3s-1.9-0.3-2.6-1s-1.1-1.6-1.1-2.8v-5h-1.3v-2.2h1.3v-3.2h3v3.2h2.6v2.2H410.6z"/>
<path class="st5" d="M416.1,333.3c-0.3-0.3-0.5-0.8-0.5-1.2s0.2-0.9,0.5-1.2s0.8-0.5,1.2-0.5s0.9,0.2,1.2,0.5s0.5,0.8,0.5,1.2
	s-0.2,0.9-0.5,1.2s-0.8,0.5-1.2,0.5S416.5,333.6,416.1,333.3z M418.9,345.4h-3v-10.8h3V345.4z"/>
<path class="st5" d="M424.6,345.4l-4.3-10.8h3.1l2.7,6.8l2.7-6.8h3.1l-4.3,10.8H424.6z"/>
<path class="st5" d="M442.7,343.8c-1.2,1.1-2.6,1.7-4.3,1.7c-1.6,0-3-0.5-4-1.5s-1.6-2.4-1.6-4c0-1.7,0.5-3,1.6-4s2.4-1.5,3.9-1.5
	s2.7,0.4,3.8,1.3c1,0.9,1.5,2.1,1.5,3.7v1.6h-7.8c0.1,0.6,0.4,1.1,0.9,1.4c0.5,0.4,1.1,0.6,1.8,0.6c1.1,0,1.9-0.4,2.6-1.1
	L442.7,343.8z M439.9,337.5c-0.4-0.3-0.9-0.5-1.5-0.5s-1.1,0.2-1.6,0.5c-0.5,0.4-0.8,0.8-0.9,1.5h4.7
	C440.5,338.3,440.3,337.8,439.9,337.5z"/>
</svg>
